<svg width="222" height="351" viewBox="0 0 222 351" fill="none" xmlns="http://www.w3.org/2000/svg">
<g clip-path="url(#clip0_2128_12)">
<rect x="222.004" y="0.60791" width="350" height="222" rx="16" transform="rotate(90 222.004 0.60791)" fill="#00252E"/>
<path opacity="0.53" d="M221.889 108.002L222.004 329.566C222.004 331.487 221.743 333.357 221.251 335.122L122.712 236.834C119.763 233.9 117.86 230.318 117.054 226.548C115.528 219.802 117.41 212.419 122.702 207.156L221.889 108.002Z" fill="url(#paint0_linear_2128_12)"/>
<path opacity="0.53" d="M78.3142 255.587L174.5 351.524L19.1617 351.608C7.58423 351.618 -1.80739 342.241 -1.81785 330.691L-1.82831 305.994L48.5915 255.597C56.7804 247.389 70.1044 247.379 78.3142 255.587Z" fill="url(#paint1_linear_2128_12)"/>
<path opacity="0.53" d="M0.0880094 169.217L30.3023 199.344C38.5225 207.531 38.533 220.836 30.3232 229.023L0.140304 259.192L0.0880094 169.217Z" fill="url(#paint2_linear_2128_12)"/>
<path opacity="0.53" d="M19.9629 -1.2979L180.635 -1.38143C180.855 4.24723 178.826 9.95939 174.506 14.2618L46.9978 141.716C38.7984 149.924 25.464 149.934 17.2541 141.737L-0.943437 123.587L-0.995732 19.6503C-0.995732 15.5254 0.206983 11.6512 2.29866 8.41391C6.01138 2.56595 12.527 -1.2979 19.9629 -1.2979Z" fill="url(#paint3_linear_2128_12)"/>
<path d="M29.5018 29.3039L29.5018 32.8048C29.5018 33.8995 29.8063 34.7232 30.8829 35.1892L46.2063 41.9092L46.2063 37.1402C46.2063 37.1402 44.1509 36.349 43.7158 36.1864L43.7158 30.3769C44.2922 30.236 46.2063 29.8241 46.2063 29.8241L46.2063 25.6079L29.5018 29.3039ZM40.2901 34.8858C39.3331 34.5172 35.6028 33.1082 35.6028 33.1082C35.6028 33.1082 34.6241 32.718 34.0259 32.4904L35.4615 32.187C35.4615 32.187 39.4418 31.309 40.2901 31.1356L40.2901 34.8858Z" fill="white"/>
<path d="M34.1455 47.9571C34.9177 47.9679 35.4397 46.9816 36.2118 45.3992C37.4081 42.7871 38.8437 41.5731 40.7577 41.6056C44.227 41.6273 46.4673 44.7272 46.4673 49.4853C46.4455 51.523 46.0323 53.4739 45.5755 54.5361L41.8344 53.8967L42.0954 53.3222C42.7153 51.8373 42.9763 50.8618 42.9763 49.0518C42.9763 47.7511 42.4652 46.353 41.345 46.3313C40.6055 46.3204 40.0835 46.9274 39.2678 48.6833C38.4739 50.4175 37.1362 52.6936 34.7437 52.6611C31.5028 52.6394 29.219 49.4745 29.219 44.9981C29.219 43.2423 29.5888 41.8224 29.9259 40.9337L33.5365 41.5514L33.3516 41.9633C33.0145 42.8087 32.6991 43.8818 32.71 45.3667C32.6991 47.1334 33.4495 47.9571 34.1455 47.9571Z" fill="white"/>
<path d="M29.5126 54.5578L46.2063 57.3867L46.2063 61.9172L42.9654 61.3645L37.6365 60.4649L29.5235 59.0992L29.5126 54.5578Z" fill="white"/>
<path d="M38.115 70.8375C34.2543 72.3549 31.0461 75.975 29.7193 81.4485L29.3821 81.3943L29.3821 74.36C29.4256 73.4062 29.7193 72.6367 30.7416 72.3765L38.115 70.8375Z" fill="white"/>
<path d="M29.5344 60.9309L46.1954 68.0736L46.1954 72.8642L32.2749 76.9287C34.1564 74.0131 37.1362 71.5311 39.2025 70.6532L40.9317 70.1762L29.5344 65.7324L29.5344 60.9309Z" fill="white"/>
<path d="M28.1478 291.459L47.5059 291.448C49.7897 291.448 51.6603 293.313 51.6603 295.578L51.682 322.219C51.682 324.506 49.8115 326.37 47.5385 326.37L28.1804 326.392C25.8857 326.392 24.026 324.528 24.026 322.252L24.0043 295.6C24.0043 293.323 25.8531 291.459 28.1478 291.459Z" fill="#F6C859"/>
<path d="M47.9844 312.92C47.9844 313.071 47.9082 313.212 47.7669 313.277C47.5711 313.375 47.321 313.299 47.2231 313.104C46.9186 312.518 46.3531 311.727 45.3852 311.261C44.1454 310.676 42.7968 310.828 42.6772 311.077C42.6446 311.142 42.7751 311.38 42.8512 311.532C43.047 311.912 43.3188 312.443 43.1013 313.05C42.8947 313.646 42.3618 313.938 42.1008 314.079C40.4151 315.001 36.0432 315.282 33.8682 314.318C33.1504 313.993 32.7154 313.559 32.5849 313.017C32.4544 312.464 32.6828 312.009 32.8785 311.651C33.0308 311.359 33.096 311.207 33.0416 311.109C32.8133 310.73 31.4212 310.741 30.3228 311.272C29.344 311.738 28.7785 312.529 28.4849 313.115C28.387 313.31 28.1369 313.396 27.9411 313.288C27.7454 313.19 27.6583 312.941 27.7671 312.746C28.126 312.052 28.8003 311.099 29.9857 310.546C31.1493 309.993 33.1613 309.733 33.7485 310.698C34.0422 311.185 33.8029 311.651 33.618 312.02C33.4767 312.302 33.3353 312.573 33.4005 312.833C33.4875 313.19 33.8899 313.429 34.2162 313.581C36.1194 314.426 40.252 314.177 41.731 313.375C41.9812 313.234 42.2531 313.071 42.3509 312.789C42.4488 312.518 42.3292 312.258 42.1443 311.901C41.9594 311.543 41.7637 311.153 41.9594 310.73C42.4053 309.82 44.352 309.885 45.744 310.535C46.9295 311.099 47.6037 312.042 47.9626 312.735C47.9735 312.8 47.9844 312.865 47.9844 312.92Z" fill="#7D662D"/>
<path d="M34.5968 314.144L34.5968 321.417C34.5968 321.645 34.4119 321.818 34.1944 321.818C33.9769 321.818 33.7921 321.645 33.7921 321.428L33.7921 314.155C33.7921 313.928 33.9769 313.754 34.1944 313.754C34.4119 313.743 34.5968 313.917 34.5968 314.144Z" fill="#7D662D"/>
<path d="M41.9051 314.144L41.9051 321.417C41.9051 321.645 41.7202 321.818 41.5027 321.818C41.2743 321.818 41.1003 321.634 41.1003 321.417L41.1003 314.144C41.1003 313.917 41.2852 313.743 41.5027 313.743C41.7202 313.733 41.9051 313.917 41.9051 314.144Z" fill="#7D662D"/>
<path d="M47.9735 304.433C47.9735 304.498 47.9626 304.563 47.93 304.617C47.5711 305.311 46.8968 306.265 45.7114 306.818C44.3194 307.479 42.3727 307.533 41.9268 306.633C41.7202 306.211 41.9268 305.81 42.1008 305.463C42.2857 305.094 42.4053 304.834 42.3075 304.574C42.1987 304.271 41.8833 304.097 41.6876 303.989C40.2085 303.187 36.065 302.948 34.1727 303.794C33.8464 303.945 33.4332 304.184 33.357 304.541C33.3027 304.758 33.0852 304.899 32.8677 304.845C32.6501 304.791 32.5196 304.574 32.5631 304.357C32.6936 303.815 33.1178 303.382 33.8356 303.057C36.0106 302.081 40.3934 302.363 42.0682 303.284C42.3292 303.425 42.8621 303.718 43.0687 304.314C43.2862 304.921 43.0144 305.452 42.8186 305.831C42.7425 305.983 42.6228 306.221 42.6446 306.286C42.7642 306.525 44.1128 306.688 45.3525 306.091C46.3313 305.625 46.8968 304.834 47.1905 304.249C47.2884 304.054 47.5385 303.967 47.7343 304.075C47.8974 304.14 47.9735 304.281 47.9735 304.433Z" fill="#7D662D"/>
<path d="M32.9655 306.059C32.9655 306.232 32.8568 306.384 32.6937 306.438C30.0836 307.305 28.0716 305.278 27.7454 304.628C27.6366 304.433 27.7236 304.184 27.9194 304.086C28.1151 303.989 28.3653 304.064 28.4631 304.26C28.6154 304.552 30.2141 306.416 32.4326 305.679C32.6502 305.604 32.8785 305.723 32.9438 305.94C32.9655 305.972 32.9655 306.015 32.9655 306.059Z" fill="#7D662D"/>
<path d="M34.586 295.946L34.586 303.219C34.586 303.447 34.4011 303.62 34.1836 303.62C33.9661 303.62 33.7812 303.436 33.7812 303.219L33.7812 295.946C33.7812 295.719 33.9661 295.545 34.1836 295.545C34.4011 295.545 34.586 295.73 34.586 295.946Z" fill="#7D662D"/>
<path d="M41.8833 295.946L41.8833 303.219C41.8833 303.447 41.6984 303.62 41.4809 303.62C41.2526 303.62 41.0786 303.436 41.0786 303.219L41.0786 295.946C41.0786 295.719 41.2634 295.545 41.4809 295.545C41.7093 295.545 41.8833 295.719 41.8833 295.946Z" fill="#7D662D"/>
<path d="M103.933 319.319L105.7 319.319L105.596 321.836L107.614 320.374L108.555 321.951L106.286 323.194L108.555 324.436L107.614 325.982L105.596 324.551L105.711 327.037L103.943 327.037L104.079 324.551L102.029 325.992L101.088 324.447L103.357 323.204L101.088 321.961L102.029 320.385L104.079 321.847L103.933 319.319Z" fill="white"/>
<path d="M103.922 306.38L105.69 306.38L105.585 308.897L107.603 307.435L108.545 309.012L106.275 310.255L108.545 311.497L107.603 313.043L105.585 311.612L105.7 314.098L103.933 314.098L104.069 311.612L102.019 313.053L101.077 311.508L103.347 310.265L101.077 309.022L102.019 307.446L104.069 308.908L103.922 306.38Z" fill="white"/>
<path d="M103.922 293.432L105.69 293.432L105.585 295.938L107.604 294.476L108.545 296.053L106.275 297.295L108.545 298.538L107.604 300.084L105.585 298.653L105.7 301.138L103.933 301.138L104.069 298.653L102.019 300.094L101.078 298.549L103.347 297.306L101.078 296.063L102.019 294.486L104.069 295.948L103.922 293.432Z" fill="white"/>
<path d="M103.912 280.493L105.679 280.493L105.575 283.01L107.593 281.548L108.534 283.125L106.265 284.367L108.534 285.61L107.593 287.155L105.575 285.725L105.69 288.21L103.922 288.21L104.058 285.725L102.008 287.166L101.067 285.62L103.337 284.378L101.067 283.135L102.008 281.558L104.058 283.02L103.912 280.493Z" fill="white"/>
<path d="M103.901 258.574L105.669 258.574L105.564 261.091L107.583 259.629L108.524 261.205L106.254 262.448L108.524 263.691L107.583 265.236L105.564 263.806L105.679 266.291L103.912 266.291L104.048 263.806L101.998 265.247L101.057 263.701L103.326 262.459L101.057 261.216L101.998 259.639L104.048 261.101L103.901 258.574Z" fill="white"/>
<path d="M103.891 245.625L105.658 245.625L105.554 248.141L107.572 246.679L108.513 248.256L106.244 249.499L108.513 250.742L107.572 252.287L105.554 250.856L105.669 253.342L103.901 253.342L104.037 250.856L101.987 252.298L101.046 250.752L103.316 249.509L101.046 248.267L101.987 246.69L104.037 248.152L103.891 245.625Z" fill="white"/>
<path d="M103.891 232.686L105.658 232.686L105.554 235.203L107.572 233.741L108.513 235.318L106.244 236.561L108.513 237.803L107.572 239.349L105.554 237.918L105.669 240.404L103.901 240.404L104.037 237.918L101.987 239.359L101.046 237.814L103.316 236.571L101.046 235.328L101.987 233.752L104.037 235.214L103.891 232.686Z" fill="white"/>
<path d="M103.88 219.737L105.648 219.737L105.543 222.243L107.562 220.781L108.503 222.358L106.233 223.601L108.503 224.843L107.562 226.389L105.543 224.958L105.658 227.444L103.891 227.444L104.027 224.958L101.977 226.399L101.036 224.854L103.305 223.611L101.036 222.368L101.977 220.792L104.027 222.254L103.88 219.737Z" fill="white"/>
<path d="M103.87 197.828L105.637 197.828L105.533 200.345L107.551 198.883L108.492 200.46L106.223 201.702L108.492 202.945L107.551 204.491L105.533 203.06L105.648 205.545L103.88 205.545L104.016 203.06L101.966 204.501L101.025 202.956L103.295 201.713L101.025 200.47L101.966 198.893L104.016 200.355L103.87 197.828Z" fill="white"/>
<path d="M103.859 184.879L105.627 184.879L105.522 187.396L107.541 185.934L108.482 187.511L106.213 188.753L108.482 189.996L107.541 191.541L105.522 190.111L105.637 192.596L103.87 192.596L104.006 190.111L101.956 191.552L101.015 190.006L103.284 188.764L101.015 187.521L101.956 185.944L104.006 187.406L103.859 184.879Z" fill="white"/>
<path d="M103.849 171.93L105.616 171.93L105.512 174.447L107.53 172.985L108.472 174.562L106.202 175.804L108.472 177.047L107.53 178.592L105.512 177.162L105.627 179.647L103.859 179.647L103.995 177.162L101.946 178.603L101.004 177.057L103.274 175.815L101.004 174.572L101.946 172.995L103.995 174.457L103.849 171.93Z" fill="white"/>
<path d="M103.849 158.992L105.616 158.992L105.512 161.498L107.53 160.036L108.472 161.613L106.202 162.856L108.472 164.098L107.53 165.644L105.512 164.213L105.627 166.698L103.859 166.698L103.995 164.213L101.946 165.654L101.004 164.109L103.274 162.866L101.004 161.623L101.946 160.046L103.995 161.508L103.849 158.992Z" fill="white"/>
<path d="M120.697 145.374L118.595 145.374L111.63 138.566C109.8 136.749 108.241 135.83 106.934 135.83C105.847 135.83 104.999 136.164 104.393 136.822C103.786 137.48 103.483 138.294 103.483 139.255C103.483 141.082 104.351 142.398 106.087 143.223L104.822 145.374C103.567 144.769 102.615 143.923 101.977 142.847C101.328 141.772 101.004 140.581 101.004 139.276C101.004 137.657 101.538 136.247 102.604 135.057C103.671 133.856 105.114 133.261 106.913 133.261C108.869 133.261 111.002 134.409 113.303 136.707L118.229 141.636L118.229 132.906L120.718 132.906L120.697 145.374Z" fill="white"/>
<path d="M109.267 121.314C109.539 119.842 110.176 118.63 111.17 117.69C112.164 116.75 113.429 116.281 114.956 116.281C116.838 116.281 118.324 116.928 119.411 118.212C120.499 119.497 121.043 121.063 121.043 122.901C121.043 124.374 120.708 125.679 120.039 126.817C119.369 127.956 118.397 128.77 117.121 129.25L115.845 127.099C117.633 126.525 118.522 125.126 118.522 122.901C118.522 121.711 118.209 120.729 117.581 119.977C116.954 119.225 116.075 118.849 114.956 118.849C113.837 118.849 112.948 119.225 112.32 119.977C111.682 120.729 111.369 121.711 111.369 122.901L111.369 123.559L109.79 124.583L103.734 120.113L103.734 128.697L101.329 128.697L101.318 117.106L103.577 117.116L109.267 121.314Z" fill="white"/>
<path d="M114.59 97.212L116.995 97.212L116.995 99.5616L120.677 99.5616L120.677 102.131L116.995 102.131L116.995 111.989L114.59 111.989L101.318 105.065L101.318 102.308L114.59 109.232L114.59 102.141L109.12 102.141L109.12 99.5721L114.59 99.5721L114.59 97.212Z" fill="white"/>
<path d="M108.869 87.1244C108.869 85.2969 109.403 83.7618 110.48 82.4983C111.557 81.2347 113.042 80.6081 114.946 80.6081C116.828 80.6081 118.313 81.2556 119.401 82.54C120.488 83.8245 121.032 85.3909 121.032 87.2288C121.032 88.7013 120.677 90.0171 119.966 91.1762C119.254 92.3354 118.229 93.1499 116.88 93.6094L115.636 91.4268C116.577 91.1658 117.288 90.675 117.78 89.9335C118.271 89.1921 118.512 88.294 118.512 87.2288C118.512 86.0175 118.198 85.0254 117.571 84.2735C116.943 83.5217 116.065 83.1457 114.946 83.1457C113.826 83.1457 112.938 83.5216 112.31 84.284C111.672 85.0358 111.358 86.007 111.358 87.1871L111.358 92.6487L101.318 91.9594L101.308 81.36L103.713 81.36L103.713 89.6098L108.859 89.944L108.869 87.1244Z" fill="white"/>
<path d="M193.004 85.9259L182.096 85.9259L182.6 88.0499L181.538 88.0499L180.404 85.4219L180.404 84.3959L193.004 84.3959L193.004 85.9259ZM193.004 81.9368L191.942 81.9368C191.27 81.0728 190.592 80.2568 189.908 79.4888C189.224 78.7208 188.546 78.0428 187.874 77.4548C187.19 76.8548 186.524 76.3868 185.876 76.0508C185.228 75.7028 184.604 75.5288 184.004 75.5288C183.56 75.5288 183.152 75.6068 182.78 75.7628C182.396 75.9188 182.084 76.1648 181.844 76.5008C181.604 76.8368 181.484 77.2928 181.484 77.8688C181.484 78.4328 181.61 78.9008 181.862 79.2728C182.102 79.6448 182.426 79.9268 182.834 80.1188C183.23 80.2988 183.668 80.3888 184.148 80.3888L184.148 81.8468C183.32 81.8348 182.612 81.6608 182.024 81.3248C181.424 80.9768 180.968 80.5028 180.656 79.9028C180.344 79.3028 180.188 78.6188 180.188 77.8508C180.188 77.0948 180.332 76.4288 180.62 75.8528C180.896 75.2768 181.31 74.8268 181.862 74.5028C182.414 74.1788 183.11 74.0168 183.95 74.0168C184.538 74.0168 185.126 74.1368 185.714 74.3768C186.302 74.6168 186.878 74.9408 187.442 75.3488C187.994 75.7568 188.528 76.2128 189.044 76.7168C189.56 77.2088 190.046 77.7128 190.502 78.2288C190.958 78.7448 191.372 79.2368 191.744 79.7048L191.744 73.5848L193.004 73.5848L193.004 81.9368ZM194.714 72.2133L179.252 67.6953L179.252 66.2013L194.714 70.7193L194.714 72.2133ZM193.004 64.552L191.942 64.552C191.27 63.688 190.592 62.872 189.908 62.104C189.224 61.336 188.546 60.658 187.874 60.07C187.19 59.47 186.524 59.002 185.876 58.666C185.228 58.318 184.604 58.144 184.004 58.144C183.56 58.144 183.152 58.222 182.78 58.378C182.396 58.534 182.084 58.78 181.844 59.116C181.604 59.452 181.484 59.908 181.484 60.484C181.484 61.048 181.61 61.516 181.862 61.888C182.102 62.26 182.426 62.542 182.834 62.734C183.23 62.914 183.668 63.004 184.148 63.004L184.148 64.462C183.32 64.45 182.612 64.276 182.024 63.94C181.424 63.592 180.968 63.118 180.656 62.518C180.344 61.918 180.188 61.234 180.188 60.466C180.188 59.71 180.332 59.044 180.62 58.468C180.896 57.892 181.31 57.442 181.862 57.118C182.414 56.794 183.11 56.632 183.95 56.632C184.538 56.632 185.126 56.752 185.714 56.992C186.302 57.232 186.878 57.556 187.442 57.964C187.994 58.372 188.528 58.828 189.044 59.332C189.56 59.824 190.046 60.328 190.502 60.844C190.958 61.36 191.372 61.852 191.744 62.32L191.744 56.2L193.004 56.2L193.004 64.552ZM193.004 48.5753L190.304 48.5753L190.304 54.9653L189.134 54.9653L180.404 48.8453L180.404 47.0813L188.972 47.0813L188.972 45.2093L190.304 45.2093L190.304 47.0813L193.004 47.0813L193.004 48.5753ZM188.972 53.2913L188.972 48.5033L182.078 48.5033L188.972 53.2913Z" fill="white"/>
<path d="M163.004 87.6959L154.604 87.6959L154.604 82.4999L155.432 82.4999L155.432 86.6879L158.36 86.6879L158.36 82.8599L159.176 82.8599L159.176 86.6879L162.176 86.6879L162.176 82.4999L163.004 82.4999L163.004 87.6959ZM163.004 81.5353L159.92 79.4953L156.848 81.5353L156.848 80.4433L159.344 78.8353L156.848 77.2153L156.848 76.1233L159.92 78.1633L163.004 76.1233L163.004 77.2153L160.484 78.8353L163.004 80.4313L163.004 81.5353ZM163.004 74.9216L156.848 74.9216L156.848 73.9136L163.004 73.9136L163.004 74.9216ZM155.6 74.4176C155.6 74.6176 155.536 74.7856 155.408 74.9216C155.272 75.0496 155.104 75.1136 154.904 75.1136C154.704 75.1136 154.544 75.0496 154.424 74.9216C154.296 74.7856 154.232 74.6176 154.232 74.4176C154.232 74.2256 154.296 74.0616 154.424 73.9256C154.544 73.7896 154.704 73.7216 154.904 73.7216C155.104 73.7216 155.272 73.7896 155.408 73.9256C155.536 74.0616 155.6 74.2256 155.6 74.4176ZM165.644 72.1468L156.848 72.1468L156.848 71.2348L157.832 71.1388C157.632 71.0108 157.448 70.8508 157.28 70.6588C157.112 70.4588 156.976 70.2188 156.872 69.9388C156.76 69.6588 156.704 69.3388 156.704 68.9788C156.704 68.4028 156.848 67.8988 157.136 67.4668C157.416 67.0348 157.8 66.6988 158.288 66.4588C158.768 66.2108 159.32 66.0868 159.944 66.0868C160.56 66.0868 161.112 66.2108 161.6 66.4588C162.08 66.6988 162.46 67.0388 162.74 67.4788C163.012 67.9108 163.148 68.4148 163.148 68.9908C163.148 69.4788 163.048 69.9108 162.848 70.2868C162.648 70.6548 162.368 70.9388 162.008 71.1388L165.644 71.1388L165.644 72.1468ZM162.272 69.1108C162.272 68.7188 162.176 68.3748 161.984 68.0788C161.792 67.7828 161.52 67.5508 161.168 67.3828C160.816 67.2068 160.404 67.1188 159.932 67.1188C159.452 67.1188 159.04 67.2068 158.696 67.3828C158.344 67.5508 158.072 67.7828 157.88 68.0788C157.68 68.3748 157.58 68.7188 157.58 69.1108C157.58 69.5108 157.68 69.8628 157.88 70.1668C158.072 70.4628 158.344 70.6948 158.696 70.8628C159.04 71.0228 159.452 71.1028 159.932 71.1028C160.404 71.1028 160.816 71.0228 161.168 70.8628C161.52 70.6948 161.792 70.4628 161.984 70.1668C162.176 69.8628 162.272 69.5108 162.272 69.1108ZM163.004 64.6468L156.848 64.6468L156.848 63.7348L158 63.6508C157.72 63.5148 157.484 63.3388 157.292 63.1228C157.1 62.8988 156.956 62.6308 156.86 62.3188C156.756 62.0068 156.704 61.6548 156.704 61.2628L157.76 61.2628L157.76 61.7308C157.76 61.9788 157.796 62.2188 157.868 62.4508C157.932 62.6748 158.04 62.8788 158.192 63.0628C158.336 63.2388 158.536 63.3788 158.792 63.4828C159.048 63.5868 159.368 63.6388 159.752 63.6388L163.004 63.6388L163.004 64.6468ZM165.644 59.4277L162.332 57.9757L162.332 58.3237L156.848 60.6877L156.848 59.5957L161.564 57.6277L156.848 55.5757L156.848 54.5317L165.644 58.3837L165.644 59.4277ZM163.004 50.1608L154.604 50.1608L154.604 47.8208C154.604 46.8368 154.776 46.0288 155.12 45.3968C155.456 44.7568 155.94 44.2848 156.572 43.9808C157.196 43.6688 157.948 43.5128 158.828 43.5128C159.692 43.5128 160.436 43.6688 161.06 43.9808C161.684 44.2848 162.164 44.7568 162.5 45.3968C162.836 46.0288 163.004 46.8368 163.004 47.8208L163.004 50.1608ZM162.164 49.1528L162.164 47.8448C162.164 47.0288 162.032 46.3808 161.768 45.9008C161.496 45.4208 161.112 45.0768 160.616 44.8688C160.112 44.6608 159.516 44.5568 158.828 44.5568C158.124 44.5568 157.52 44.6608 157.016 44.8688C156.512 45.0768 156.124 45.4208 155.852 45.9008C155.58 46.3808 155.444 47.0288 155.444 47.8448L155.444 49.1528L162.164 49.1528ZM163.148 40.1199C163.148 40.6079 163.06 41.0159 162.884 41.3439C162.708 41.6639 162.476 41.9039 162.188 42.0639C161.9 42.2239 161.584 42.3039 161.24 42.3039C160.832 42.3039 160.484 42.1999 160.196 41.9919C159.908 41.7759 159.692 41.4759 159.548 41.0919C159.396 40.7079 159.32 40.2559 159.32 39.7359L159.32 38.1519C158.928 38.1519 158.604 38.2039 158.348 38.3079C158.084 38.4119 157.888 38.5759 157.76 38.7999C157.624 39.0159 157.556 39.2919 157.556 39.6279C157.556 40.0039 157.652 40.3279 157.844 40.5999C158.028 40.8719 158.304 41.0399 158.672 41.1039L158.672 42.1359C158.248 42.0879 157.892 41.9439 157.604 41.7039C157.308 41.4639 157.084 41.1599 156.932 40.7919C156.78 40.4239 156.704 40.0359 156.704 39.6279C156.704 39.0679 156.808 38.6039 157.016 38.2359C157.216 37.8679 157.5 37.5959 157.868 37.4199C158.228 37.2359 158.656 37.1439 159.152 37.1439L163.004 37.1439L163.004 38.0439L161.924 38.1039C162.092 38.1839 162.252 38.2879 162.404 38.4159C162.548 38.5359 162.676 38.6799 162.788 38.8479C162.9 39.0079 162.988 39.1959 163.052 39.4119C163.116 39.6279 163.148 39.8639 163.148 40.1199ZM162.296 39.9759C162.296 39.7039 162.236 39.4559 162.116 39.2319C161.996 38.9999 161.836 38.8039 161.636 38.6439C161.436 38.4839 161.212 38.3639 160.964 38.2839C160.708 38.1959 160.444 38.1519 160.172 38.1519L160.1 38.1519L160.1 39.6519C160.1 40.0359 160.148 40.3479 160.244 40.5879C160.332 40.8199 160.46 40.9879 160.628 41.0919C160.796 41.1959 160.984 41.2479 161.192 41.2479C161.416 41.2479 161.612 41.1999 161.78 41.1039C161.94 41.0079 162.068 40.8639 162.164 40.6719C162.252 40.4799 162.296 40.2479 162.296 39.9759ZM163.004 33.2895C163.004 33.6495 162.948 33.9615 162.836 34.2255C162.724 34.4895 162.536 34.6935 162.272 34.8375C162 34.9735 161.636 35.0415 161.18 35.0415L157.7 35.0415L157.7 36.1215L156.848 36.1215L156.848 35.0415L155.348 34.9095L155.348 34.0335L156.848 34.0335L156.848 32.2695L157.7 32.2695L157.7 34.0335L161.18 34.0335C161.556 34.0335 161.812 33.9575 161.948 33.8055C162.076 33.6535 162.14 33.3855 162.14 33.0015L162.14 32.3295L163.004 32.3295L163.004 33.2895ZM163.148 28.456C163.148 29.016 163.016 29.516 162.752 29.956C162.48 30.388 162.104 30.728 161.624 30.976C161.136 31.224 160.572 31.348 159.932 31.348C159.284 31.348 158.72 31.224 158.24 30.976C157.752 30.728 157.376 30.388 157.112 29.956C156.84 29.516 156.704 29.008 156.704 28.432C156.704 27.832 156.84 27.328 157.112 26.92C157.376 26.504 157.728 26.188 158.168 25.972C158.608 25.756 159.088 25.648 159.608 25.648C159.688 25.648 159.772 25.648 159.86 25.648C159.948 25.648 160.048 25.652 160.16 25.66L160.16 30.592L159.38 30.592L159.38 26.644C158.796 26.66 158.348 26.84 158.036 27.184C157.716 27.52 157.556 27.944 157.556 28.456C157.556 28.792 157.636 29.104 157.796 29.392C157.956 29.68 158.192 29.916 158.504 30.1C158.808 30.276 159.192 30.364 159.656 30.364L159.992 30.364C160.496 30.364 160.92 30.276 161.264 30.1C161.608 29.916 161.868 29.68 162.044 29.392C162.212 29.104 162.296 28.792 162.296 28.456C162.296 28.016 162.208 27.664 162.032 27.4C161.848 27.136 161.592 26.94 161.264 26.812L161.264 25.816C161.624 25.92 161.948 26.092 162.236 26.332C162.516 26.564 162.74 26.86 162.908 27.22C163.068 27.572 163.148 27.984 163.148 28.456Z" fill="white"/>
<path d="M193.004 341.348L180.404 341.348L180.404 339.188L191.312 339.188L191.312 333.554L193.004 333.554L193.004 341.348ZM193.22 327.733C193.22 328.585 193.022 329.359 192.626 330.055C192.23 330.739 191.678 331.279 190.97 331.675C190.25 332.071 189.428 332.269 188.504 332.269C187.568 332.269 186.746 332.071 186.038 331.675C185.318 331.267 184.76 330.721 184.364 330.037C183.968 329.341 183.77 328.567 183.77 327.715C183.77 326.839 183.968 326.059 184.364 325.375C184.76 324.691 185.312 324.151 186.02 323.755C186.728 323.359 187.556 323.161 188.504 323.161C189.44 323.161 190.262 323.365 190.97 323.773C191.678 324.169 192.23 324.709 192.626 325.393C193.022 326.077 193.22 326.857 193.22 327.733ZM191.366 327.715C191.366 327.283 191.258 326.893 191.042 326.545C190.826 326.185 190.508 325.897 190.088 325.681C189.656 325.465 189.128 325.357 188.504 325.357C187.868 325.357 187.34 325.465 186.92 325.681C186.488 325.897 186.17 326.185 185.966 326.545C185.75 326.893 185.642 327.277 185.642 327.697C185.642 328.117 185.75 328.507 185.966 328.867C186.17 329.227 186.488 329.515 186.92 329.731C187.34 329.947 187.868 330.055 188.504 330.055C189.128 330.055 189.656 329.947 190.088 329.731C190.508 329.515 190.826 329.233 191.042 328.885C191.258 328.525 191.366 328.135 191.366 327.715ZM193.004 321.046L180.044 321.046L180.044 318.886L193.004 318.886L193.004 321.046ZM193.22 313.47C193.22 314.214 193.1 314.832 192.86 315.324C192.608 315.816 192.272 316.182 191.852 316.422C191.432 316.662 190.976 316.782 190.484 316.782C189.908 316.782 189.416 316.638 189.008 316.35C188.588 316.05 188.264 315.612 188.036 315.036C187.796 314.46 187.676 313.752 187.676 312.912L187.676 310.626C187.196 310.626 186.8 310.692 186.488 310.824C186.176 310.956 185.942 311.166 185.786 311.454C185.63 311.73 185.552 312.078 185.552 312.498C185.552 313.002 185.666 313.434 185.894 313.794C186.122 314.142 186.458 314.352 186.902 314.424L186.902 316.548C186.254 316.488 185.702 316.272 185.246 315.9C184.778 315.528 184.418 315.048 184.166 314.46C183.902 313.86 183.77 313.206 183.77 312.498C183.77 311.646 183.92 310.92 184.22 310.32C184.508 309.72 184.928 309.264 185.48 308.952C186.02 308.628 186.674 308.466 187.442 308.466L193.004 308.466L193.004 310.302L191.564 310.518C191.792 310.638 192.008 310.794 192.212 310.986C192.416 311.166 192.596 311.376 192.752 311.616C192.896 311.856 193.01 312.132 193.094 312.444C193.178 312.744 193.22 313.086 193.22 313.47ZM191.51 312.984C191.51 312.636 191.45 312.324 191.33 312.048C191.198 311.772 191.018 311.538 190.79 311.346C190.562 311.154 190.304 311.004 190.016 310.896C189.716 310.788 189.41 310.716 189.098 310.68L189.062 310.68L189.062 312.678C189.062 313.11 189.116 313.464 189.224 313.74C189.332 314.004 189.482 314.202 189.674 314.334C189.854 314.454 190.07 314.514 190.322 314.514C190.574 314.514 190.79 314.454 190.97 314.334C191.15 314.202 191.288 314.022 191.384 313.794C191.468 313.566 191.51 313.296 191.51 312.984ZM193.004 301.744L180.404 301.744L180.404 297.226C180.404 296.218 180.578 295.39 180.926 294.742C181.262 294.094 181.718 293.614 182.294 293.302C182.858 292.978 183.5 292.816 184.22 292.816C184.892 292.816 185.516 292.972 186.092 293.284C186.668 293.596 187.13 294.082 187.478 294.742C187.826 295.39 188 296.23 188 297.262L188 299.584L193.004 299.584L193.004 301.744ZM193.004 295.174L187.442 297.82L187.442 295.462L193.004 292.69L193.004 295.174ZM186.398 299.584L186.398 297.352C186.398 296.56 186.206 295.978 185.822 295.606C185.426 295.222 184.91 295.03 184.274 295.03C183.65 295.03 183.152 295.216 182.78 295.588C182.396 295.96 182.204 296.554 182.204 297.37L182.204 299.584L186.398 299.584ZM193.22 286.987C193.22 287.839 193.022 288.613 192.626 289.309C192.23 289.993 191.678 290.533 190.97 290.929C190.25 291.325 189.428 291.523 188.504 291.523C187.568 291.523 186.746 291.325 186.038 290.929C185.318 290.521 184.76 289.975 184.364 289.291C183.968 288.595 183.77 287.821 183.77 286.969C183.77 286.093 183.968 285.313 184.364 284.629C184.76 283.945 185.312 283.405 186.02 283.009C186.728 282.613 187.556 282.415 188.504 282.415C189.44 282.415 190.262 282.619 190.97 283.027C191.678 283.423 192.23 283.963 192.626 284.647C193.022 285.331 193.22 286.111 193.22 286.987ZM191.366 286.969C191.366 286.537 191.258 286.147 191.042 285.799C190.826 285.439 190.508 285.151 190.088 284.935C189.656 284.719 189.128 284.611 188.504 284.611C187.868 284.611 187.34 284.719 186.92 284.935C186.488 285.151 186.17 285.439 185.966 285.799C185.75 286.147 185.642 286.531 185.642 286.951C185.642 287.371 185.75 287.761 185.966 288.121C186.17 288.481 186.488 288.769 186.92 288.985C187.34 289.201 187.868 289.309 188.504 289.309C189.128 289.309 189.656 289.201 190.088 288.985C190.508 288.769 190.826 288.487 191.042 288.139C191.258 287.779 191.366 287.389 191.366 286.969ZM193.22 276.682C193.22 277.474 193.094 278.17 192.842 278.77C192.578 279.358 192.218 279.826 191.762 280.174C191.294 280.522 190.76 280.726 190.16 280.786L190.16 278.626C190.412 278.566 190.646 278.458 190.862 278.302C191.066 278.134 191.228 277.918 191.348 277.654C191.468 277.39 191.528 277.072 191.528 276.7C191.528 276.352 191.48 276.064 191.384 275.836C191.276 275.608 191.138 275.44 190.97 275.332C190.802 275.224 190.628 275.17 190.448 275.17C190.16 275.17 189.944 275.248 189.8 275.404C189.644 275.548 189.524 275.77 189.44 276.07C189.344 276.37 189.254 276.724 189.17 277.132C189.074 277.54 188.966 277.942 188.846 278.338C188.726 278.734 188.57 279.094 188.378 279.418C188.186 279.742 187.946 280 187.658 280.192C187.358 280.384 186.992 280.48 186.56 280.48C186.032 280.48 185.558 280.342 185.138 280.066C184.718 279.778 184.388 279.37 184.148 278.842C183.896 278.302 183.77 277.666 183.77 276.934C183.77 275.878 184.016 275.038 184.508 274.414C184.988 273.778 185.666 273.406 186.542 273.298L186.542 275.35C186.206 275.41 185.948 275.578 185.768 275.854C185.576 276.13 185.48 276.49 185.48 276.934C185.48 277.402 185.57 277.762 185.75 278.014C185.918 278.254 186.14 278.374 186.416 278.374C186.608 278.374 186.776 278.296 186.92 278.14C187.064 277.984 187.19 277.762 187.298 277.474C187.394 277.186 187.484 276.838 187.568 276.43C187.712 275.77 187.874 275.188 188.054 274.684C188.222 274.168 188.48 273.76 188.828 273.46C189.164 273.148 189.656 272.992 190.304 272.992C190.868 272.98 191.372 273.13 191.816 273.442C192.26 273.742 192.608 274.168 192.86 274.72C193.1 275.272 193.22 275.926 193.22 276.682ZM193.22 266.648C193.22 267.536 193.028 268.328 192.644 269.024C192.248 269.708 191.702 270.248 191.006 270.644C190.298 271.028 189.482 271.22 188.558 271.22C187.61 271.22 186.782 271.028 186.074 270.644C185.354 270.26 184.79 269.726 184.382 269.042C183.974 268.346 183.77 267.542 183.77 266.63C183.77 265.742 183.968 264.968 184.364 264.308C184.76 263.648 185.288 263.138 185.948 262.778C186.608 262.406 187.346 262.22 188.162 262.22C188.282 262.22 188.414 262.226 188.558 262.238C188.702 262.238 188.858 262.244 189.026 262.256L189.026 269.654L187.622 269.654L187.622 264.398C186.986 264.434 186.482 264.662 186.11 265.082C185.726 265.49 185.534 266.006 185.534 266.63C185.534 267.074 185.636 267.488 185.84 267.872C186.044 268.244 186.344 268.544 186.74 268.772C187.136 268.988 187.634 269.096 188.234 269.096L188.756 269.096C189.32 269.096 189.806 268.988 190.214 268.772C190.61 268.556 190.916 268.268 191.132 267.908C191.336 267.536 191.438 267.122 191.438 266.666C191.438 266.162 191.33 265.748 191.114 265.424C190.898 265.088 190.61 264.836 190.25 264.668L190.25 262.49C190.802 262.646 191.306 262.922 191.762 263.318C192.206 263.702 192.56 264.176 192.824 264.74C193.088 265.292 193.22 265.928 193.22 266.648Z" fill="white"/>
<path d="M163.148 338.096C163.148 338.904 162.968 339.604 162.608 340.196C162.24 340.78 161.732 341.232 161.084 341.552C160.428 341.872 159.668 342.032 158.804 342.032C157.94 342.032 157.184 341.872 156.536 341.552C155.88 341.232 155.372 340.78 155.012 340.196C154.644 339.604 154.46 338.904 154.46 338.096C154.46 337.136 154.688 336.36 155.144 335.768C155.6 335.168 156.244 334.784 157.076 334.616L157.076 335.72C156.556 335.856 156.14 336.12 155.828 336.512C155.508 336.896 155.348 337.424 155.348 338.096C155.348 338.68 155.488 339.192 155.768 339.632C156.04 340.072 156.436 340.412 156.956 340.652C157.468 340.884 158.084 341 158.804 341C159.524 341 160.144 340.884 160.664 340.652C161.176 340.412 161.572 340.072 161.852 339.632C162.124 339.192 162.26 338.68 162.26 338.096C162.26 337.424 162.108 336.896 161.804 336.512C161.492 336.12 161.08 335.856 160.568 335.72L160.568 334.616C161.376 334.784 162.008 335.168 162.464 335.768C162.92 336.36 163.148 337.136 163.148 338.096ZM163.148 331.222C163.148 331.71 163.06 332.118 162.884 332.446C162.708 332.766 162.476 333.006 162.188 333.166C161.9 333.326 161.584 333.406 161.24 333.406C160.832 333.406 160.484 333.302 160.196 333.094C159.908 332.878 159.692 332.578 159.548 332.194C159.396 331.81 159.32 331.358 159.32 330.838L159.32 329.254C158.928 329.254 158.604 329.306 158.348 329.41C158.084 329.514 157.888 329.678 157.76 329.902C157.624 330.118 157.556 330.394 157.556 330.73C157.556 331.106 157.652 331.43 157.844 331.702C158.028 331.974 158.304 332.142 158.672 332.206L158.672 333.238C158.248 333.19 157.892 333.046 157.604 332.806C157.308 332.566 157.084 332.262 156.932 331.894C156.78 331.526 156.704 331.138 156.704 330.73C156.704 330.17 156.808 329.706 157.016 329.338C157.216 328.97 157.5 328.698 157.868 328.522C158.228 328.338 158.656 328.246 159.152 328.246L163.004 328.246L163.004 329.146L161.924 329.206C162.092 329.286 162.252 329.39 162.404 329.518C162.548 329.638 162.676 329.782 162.788 329.95C162.9 330.11 162.988 330.298 163.052 330.514C163.116 330.73 163.148 330.966 163.148 331.222ZM162.296 331.078C162.296 330.806 162.236 330.558 162.116 330.334C161.996 330.102 161.836 329.906 161.636 329.746C161.436 329.586 161.212 329.466 160.964 329.386C160.708 329.298 160.444 329.254 160.172 329.254L160.1 329.254L160.1 330.754C160.1 331.138 160.148 331.45 160.244 331.69C160.332 331.922 160.46 332.09 160.628 332.194C160.796 332.298 160.984 332.35 161.192 332.35C161.416 332.35 161.612 332.302 161.78 332.206C161.94 332.11 162.068 331.966 162.164 331.774C162.252 331.582 162.296 331.35 162.296 331.078ZM163.004 326.639L156.848 326.639L156.848 325.727L158 325.643C157.72 325.507 157.484 325.331 157.292 325.115C157.1 324.891 156.956 324.623 156.86 324.311C156.756 323.999 156.704 323.647 156.704 323.255L157.76 323.255L157.76 323.723C157.76 323.971 157.796 324.211 157.868 324.443C157.932 324.667 158.04 324.871 158.192 325.055C158.336 325.231 158.536 325.371 158.792 325.475C159.048 325.579 159.368 325.631 159.752 325.631L163.004 325.631L163.004 326.639ZM163.148 319.675C163.148 320.251 163.008 320.759 162.728 321.199C162.448 321.631 162.064 321.971 161.576 322.219C161.088 322.459 160.536 322.579 159.92 322.579C159.296 322.579 158.744 322.459 158.264 322.219C157.784 321.971 157.404 321.631 157.124 321.199C156.844 320.759 156.704 320.247 156.704 319.663C156.704 319.175 156.804 318.747 157.004 318.379C157.204 318.011 157.484 317.727 157.844 317.527L154.364 317.527L154.364 316.519L163.004 316.519L163.004 317.431L162.008 317.515C162.2 317.635 162.384 317.795 162.56 317.995C162.736 318.195 162.88 318.435 162.992 318.715C163.096 318.987 163.148 319.307 163.148 319.675ZM162.272 319.555C162.272 319.155 162.176 318.807 161.984 318.511C161.792 318.207 161.52 317.975 161.168 317.815C160.816 317.647 160.404 317.563 159.932 317.563C159.452 317.563 159.04 317.647 158.696 317.815C158.344 317.975 158.072 318.207 157.88 318.511C157.68 318.807 157.58 319.155 157.58 319.555C157.58 319.939 157.68 320.283 157.88 320.587C158.072 320.883 158.344 321.119 158.696 321.295C159.04 321.463 159.452 321.547 159.932 321.547C160.404 321.547 160.816 321.463 161.168 321.295C161.52 321.119 161.792 320.883 161.984 320.587C162.176 320.283 162.272 319.939 162.272 319.555ZM163.004 306.191L154.604 306.191L154.604 305.183L163.004 305.183L163.004 306.191ZM163.004 311.555L154.604 311.555L154.604 310.547L163.004 310.547L163.004 311.555ZM159.14 310.739L158.312 310.739L158.312 305.939L159.14 305.939L159.14 310.739ZM163.148 300.736C163.148 301.312 163.016 301.824 162.752 302.272C162.488 302.72 162.116 303.072 161.636 303.328C161.148 303.576 160.58 303.7 159.932 303.7C159.276 303.7 158.708 303.572 158.228 303.316C157.748 303.06 157.376 302.708 157.112 302.26C156.84 301.804 156.704 301.288 156.704 300.712C156.704 300.136 156.84 299.624 157.112 299.176C157.376 298.728 157.748 298.38 158.228 298.132C158.708 297.876 159.276 297.748 159.932 297.748C160.58 297.748 161.148 297.876 161.636 298.132C162.116 298.388 162.488 298.744 162.752 299.2C163.016 299.648 163.148 300.16 163.148 300.736ZM162.284 300.736C162.284 300.376 162.196 300.048 162.02 299.752C161.844 299.456 161.58 299.22 161.228 299.044C160.876 298.868 160.444 298.78 159.932 298.78C159.404 298.78 158.968 298.868 158.624 299.044C158.272 299.212 158.008 299.444 157.832 299.74C157.656 300.036 157.568 300.36 157.568 300.712C157.568 301.064 157.656 301.388 157.832 301.684C158.008 301.98 158.272 302.22 158.624 302.404C158.968 302.58 159.404 302.668 159.932 302.668C160.444 302.668 160.876 302.58 161.228 302.404C161.58 302.228 161.844 301.996 162.02 301.708C162.196 301.412 162.284 301.088 162.284 300.736ZM163.004 296.311L154.364 296.311L154.364 295.303L163.004 295.303L163.004 296.311ZM163.148 290.975C163.148 291.551 163.008 292.059 162.728 292.499C162.448 292.931 162.064 293.271 161.576 293.519C161.088 293.759 160.536 293.879 159.92 293.879C159.296 293.879 158.744 293.759 158.264 293.519C157.784 293.271 157.404 292.931 157.124 292.499C156.844 292.059 156.704 291.547 156.704 290.963C156.704 290.475 156.804 290.047 157.004 289.679C157.204 289.311 157.484 289.027 157.844 288.827L154.364 288.827L154.364 287.819L163.004 287.819L163.004 288.731L162.008 288.815C162.2 288.935 162.384 289.095 162.56 289.295C162.736 289.495 162.88 289.735 162.992 290.015C163.096 290.287 163.148 290.607 163.148 290.975ZM162.272 290.855C162.272 290.455 162.176 290.107 161.984 289.811C161.792 289.507 161.52 289.275 161.168 289.115C160.816 288.947 160.404 288.863 159.932 288.863C159.452 288.863 159.04 288.947 158.696 289.115C158.344 289.275 158.072 289.507 157.88 289.811C157.68 290.107 157.58 290.455 157.58 290.855C157.58 291.239 157.68 291.583 157.88 291.887C158.072 292.183 158.344 292.419 158.696 292.595C159.04 292.763 159.452 292.847 159.932 292.847C160.404 292.847 160.816 292.763 161.168 292.595C161.52 292.419 161.792 292.183 161.984 291.887C162.176 291.583 162.272 291.239 162.272 290.855ZM163.148 283.487C163.148 284.047 163.016 284.547 162.752 284.987C162.48 285.419 162.104 285.759 161.624 286.007C161.136 286.255 160.572 286.379 159.932 286.379C159.284 286.379 158.72 286.255 158.24 286.007C157.752 285.759 157.376 285.419 157.112 284.987C156.84 284.547 156.704 284.039 156.704 283.463C156.704 282.863 156.84 282.359 157.112 281.951C157.376 281.535 157.728 281.219 158.168 281.003C158.608 280.787 159.088 280.679 159.608 280.679C159.688 280.679 159.772 280.679 159.86 280.679C159.948 280.679 160.048 280.683 160.16 280.691L160.16 285.623L159.38 285.623L159.38 281.675C158.796 281.691 158.348 281.871 158.036 282.215C157.716 282.551 157.556 282.975 157.556 283.487C157.556 283.823 157.636 284.135 157.796 284.423C157.956 284.711 158.192 284.947 158.504 285.131C158.808 285.307 159.192 285.395 159.656 285.395L159.992 285.395C160.496 285.395 160.92 285.307 161.264 285.131C161.608 284.947 161.868 284.711 162.044 284.423C162.212 284.135 162.296 283.823 162.296 283.487C162.296 283.047 162.208 282.695 162.032 282.431C161.848 282.167 161.592 281.971 161.264 281.843L161.264 280.847C161.624 280.951 161.948 281.123 162.236 281.363C162.516 281.595 162.74 281.891 162.908 282.251C163.068 282.603 163.148 283.015 163.148 283.487ZM163.004 279.319L156.848 279.319L156.848 278.407L158 278.323C157.72 278.187 157.484 278.011 157.292 277.795C157.1 277.571 156.956 277.303 156.86 276.991C156.756 276.679 156.704 276.327 156.704 275.935L157.76 275.935L157.76 276.403C157.76 276.651 157.796 276.891 157.868 277.123C157.932 277.347 158.04 277.551 158.192 277.735C158.336 277.911 158.536 278.051 158.792 278.155C159.048 278.259 159.368 278.311 159.752 278.311L163.004 278.311L163.004 279.319ZM163.004 271.584L156.848 271.584L156.848 270.672L157.88 270.612C157.512 270.428 157.224 270.16 157.016 269.808C156.808 269.456 156.704 269.052 156.704 268.596C156.704 268.124 156.796 267.716 156.98 267.372C157.164 267.028 157.444 266.76 157.82 266.568C158.188 266.376 158.656 266.28 159.224 266.28L163.004 266.28L163.004 267.288L159.332 267.288C158.748 267.288 158.308 267.424 158.012 267.696C157.716 267.968 157.568 268.344 157.568 268.824C157.568 269.144 157.648 269.44 157.808 269.712C157.968 269.976 158.2 270.188 158.504 270.348C158.8 270.5 159.168 270.576 159.608 270.576L163.004 270.576L163.004 271.584ZM163.148 262.702C163.148 263.19 163.06 263.598 162.884 263.926C162.708 264.246 162.476 264.486 162.188 264.646C161.9 264.806 161.584 264.886 161.24 264.886C160.832 264.886 160.484 264.782 160.196 264.574C159.908 264.358 159.692 264.058 159.548 263.674C159.396 263.29 159.32 262.838 159.32 262.318L159.32 260.734C158.928 260.734 158.604 260.786 158.348 260.89C158.084 260.994 157.888 261.158 157.76 261.382C157.624 261.598 157.556 261.874 157.556 262.21C157.556 262.586 157.652 262.91 157.844 263.182C158.028 263.454 158.304 263.622 158.672 263.686L158.672 264.718C158.248 264.67 157.892 264.526 157.604 264.286C157.308 264.046 157.084 263.742 156.932 263.374C156.78 263.006 156.704 262.618 156.704 262.21C156.704 261.65 156.808 261.186 157.016 260.818C157.216 260.45 157.5 260.178 157.868 260.002C158.228 259.818 158.656 259.726 159.152 259.726L163.004 259.726L163.004 260.626L161.924 260.686C162.092 260.766 162.252 260.87 162.404 260.998C162.548 261.118 162.676 261.262 162.788 261.43C162.9 261.59 162.988 261.778 163.052 261.994C163.116 262.21 163.148 262.446 163.148 262.702ZM162.296 262.558C162.296 262.286 162.236 262.038 162.116 261.814C161.996 261.582 161.836 261.386 161.636 261.226C161.436 261.066 161.212 260.946 160.964 260.866C160.708 260.778 160.444 260.734 160.172 260.734L160.1 260.734L160.1 262.234C160.1 262.618 160.148 262.93 160.244 263.17C160.332 263.402 160.46 263.57 160.628 263.674C160.796 263.778 160.984 263.83 161.192 263.83C161.416 263.83 161.612 263.782 161.78 263.686C161.94 263.59 162.068 263.446 162.164 263.254C162.252 263.062 162.296 262.83 162.296 262.558ZM163.004 258.119L156.848 258.119L156.848 257.207L157.712 257.147C157.4 256.955 157.156 256.699 156.98 256.379C156.796 256.051 156.704 255.699 156.704 255.323C156.704 255.011 156.748 254.731 156.836 254.483C156.916 254.235 157.044 254.019 157.22 253.835C157.388 253.643 157.604 253.487 157.868 253.367C157.492 253.159 157.204 252.875 157.004 252.515C156.804 252.155 156.704 251.771 156.704 251.363C156.704 250.899 156.796 250.499 156.98 250.163C157.164 249.819 157.444 249.555 157.82 249.371C158.196 249.179 158.668 249.083 159.236 249.083L163.004 249.083L163.004 250.079L159.344 250.079C158.752 250.079 158.308 250.203 158.012 250.451C157.716 250.699 157.568 251.047 157.568 251.495C157.568 251.791 157.648 252.063 157.808 252.311C157.968 252.551 158.204 252.743 158.516 252.887C158.82 253.031 159.192 253.103 159.632 253.103L163.004 253.103L163.004 254.111L159.344 254.111C158.752 254.111 158.308 254.235 158.012 254.483C157.716 254.731 157.568 255.071 157.568 255.503C157.568 255.799 157.648 256.071 157.808 256.319C157.968 256.559 158.204 256.751 158.516 256.895C158.82 257.039 159.192 257.111 159.632 257.111L163.004 257.111L163.004 258.119ZM163.148 244.851C163.148 245.411 163.016 245.911 162.752 246.351C162.48 246.783 162.104 247.123 161.624 247.371C161.136 247.619 160.572 247.743 159.932 247.743C159.284 247.743 158.72 247.619 158.24 247.371C157.752 247.123 157.376 246.783 157.112 246.351C156.84 245.911 156.704 245.403 156.704 244.827C156.704 244.227 156.84 243.723 157.112 243.315C157.376 242.899 157.728 242.583 158.168 242.367C158.608 242.151 159.088 242.043 159.608 242.043C159.688 242.043 159.772 242.043 159.86 242.043C159.948 242.043 160.048 242.047 160.16 242.055L160.16 246.987L159.38 246.987L159.38 243.039C158.796 243.055 158.348 243.235 158.036 243.579C157.716 243.915 157.556 244.339 157.556 244.851C157.556 245.187 157.636 245.499 157.796 245.787C157.956 246.075 158.192 246.311 158.504 246.495C158.808 246.671 159.192 246.759 159.656 246.759L159.992 246.759C160.496 246.759 160.92 246.671 161.264 246.495C161.608 246.311 161.868 246.075 162.044 245.787C162.212 245.499 162.296 245.187 162.296 244.851C162.296 244.411 162.208 244.059 162.032 243.795C161.848 243.531 161.592 243.335 161.264 243.207L161.264 242.211C161.624 242.315 161.948 242.487 162.236 242.727C162.516 242.959 162.74 243.255 162.908 243.615C163.068 243.967 163.148 244.379 163.148 244.851Z" fill="white"/>
</g>
<defs>
<linearGradient id="paint0_linear_2128_12" x1="169.306" y1="335.147" x2="169.182" y2="108.031" gradientUnits="userSpaceOnUse">
<stop stop-color="#02CAFD"/>
<stop offset="1" stop-color="#83F8A6"/>
</linearGradient>
<linearGradient id="paint1_linear_2128_12" x1="86.3914" y1="351.619" x2="86.3764" y2="249.449" gradientUnits="userSpaceOnUse">
<stop stop-color="#02CAFD"/>
<stop offset="1" stop-color="#83F8A6"/>
</linearGradient>
<linearGradient id="paint2_linear_2128_12" x1="18.2925" y1="259.202" x2="18.2361" y2="169.229" gradientUnits="userSpaceOnUse">
<stop stop-color="#02CAFD"/>
<stop offset="1" stop-color="#83F8A6"/>
</linearGradient>
<linearGradient id="paint3_linear_2128_12" x1="89.8849" y1="147.895" x2="89.8538" y2="-1.36216" gradientUnits="userSpaceOnUse">
<stop stop-color="#02CAFD"/>
<stop offset="1" stop-color="#83F8A6"/>
</linearGradient>
<clipPath id="clip0_2128_12">
<rect x="222.004" y="0.60791" width="350" height="222" rx="16" transform="rotate(90 222.004 0.60791)" fill="white"/>
</clipPath>
</defs>
</svg>
