<svg width="354" height="179" viewBox="0 0 354 179" fill="none" xmlns="http://www.w3.org/2000/svg">
<path d="M83.2486 0.00292969L112.133 30.5221L49.6965 96.4925L20.8123 65.9733L83.2486 0.00292969Z" fill="#5856D6"/>
<path d="M41.6244 43.9832L99.3928 105.022L78.5808 127.012L20.8123 65.9733L41.6244 43.9832Z" fill="#5856D6"/>
<path d="M57.7711 148.999L28.8869 118.48L91.3231 52.5095L120.207 83.0287L57.7711 148.999Z" fill="#0097A7"/>
<path d="M99.3952 105.019L41.6268 43.9804L62.4389 21.9903L120.207 83.0287L99.3952 105.019Z" fill="#0097A7"/>
<rect width="42.0205" height="30.2772" transform="matrix(0.687385 0.726293 -0.687385 0.726293 62.4318 21.9922)" fill="#5856D6"/>
<path d="M150.777 127V37.4H205.305V46.232H161.529V77.72H198.777V86.424H161.529V127H150.777ZM213.027 127V37.4H223.779V127H213.027ZM236.813 127V63.512H247.565V127H236.813ZM242.189 50.84C240.056 50.84 238.264 50.1147 236.813 48.664C235.362 47.2133 234.637 45.4213 234.637 43.288C234.637 41.24 235.362 39.4907 236.813 38.04C238.264 36.5893 240.056 35.864 242.189 35.864C244.237 35.864 245.986 36.5893 247.437 38.04C248.888 39.4907 249.613 41.2827 249.613 43.416C249.613 45.464 248.888 47.2133 247.437 48.664C245.986 50.1147 244.237 50.84 242.189 50.84ZM312.623 152.6V116.504C310.575 119.576 307.631 122.349 303.791 124.824C300.036 127.299 295.215 128.536 289.327 128.536C282.671 128.536 276.996 127.085 272.303 124.184C267.61 121.197 264.026 117.187 261.551 112.152C259.162 107.117 257.967 101.485 257.967 95.256C257.967 89.0267 259.162 83.3947 261.551 78.36C264.026 73.3253 267.482 69.3573 271.919 66.456C276.442 63.4693 281.775 61.976 287.919 61.976C291.418 61.976 294.703 62.488 297.775 63.512C300.847 64.536 303.663 66.072 306.223 68.12C308.868 70.0827 311.087 72.6 312.879 75.672H313.391L314.415 63.512H323.375V152.6H312.623ZM290.479 119.192C294.916 119.192 298.756 118.211 301.999 116.248C305.327 114.2 307.887 111.384 309.679 107.8C311.471 104.216 312.367 100.035 312.367 95.256C312.367 90.4773 311.471 86.296 309.679 82.712C307.887 79.128 305.327 76.3547 301.999 74.392C298.756 72.344 294.916 71.32 290.479 71.32C286.042 71.32 282.202 72.344 278.959 74.392C275.716 76.3547 273.199 79.128 271.407 82.712C269.7 86.296 268.847 90.4773 268.847 95.256C268.847 100.035 269.7 104.216 271.407 107.8C273.199 111.384 275.716 114.2 278.959 116.248C282.202 118.211 286.042 119.192 290.479 119.192ZM340.79 127.64C338.827 127.64 337.121 126.957 335.67 125.592C334.305 124.141 333.622 122.435 333.622 120.472C333.622 118.509 334.305 116.845 335.67 115.48C337.121 114.115 338.827 113.432 340.79 113.432C342.753 113.432 344.417 114.115 345.782 115.48C347.147 116.845 347.83 118.509 347.83 120.472C347.83 122.435 347.147 124.141 345.782 125.592C344.417 126.957 342.753 127.64 340.79 127.64Z" fill="white"/>
<path d="M196.539 172.288C195.883 172.288 195.275 172.192 194.715 172C194.171 171.824 193.683 171.568 193.251 171.232C192.819 170.896 192.467 170.488 192.195 170.008L192.003 172H190.179V154.72H192.195V162.064C192.579 161.488 193.123 160.968 193.827 160.504C194.547 160.04 195.459 159.808 196.563 159.808C197.747 159.808 198.779 160.08 199.659 160.624C200.539 161.168 201.219 161.912 201.699 162.856C202.195 163.8 202.443 164.872 202.443 166.072C202.443 167.272 202.195 168.344 201.699 169.288C201.219 170.216 200.531 170.952 199.635 171.496C198.755 172.024 197.723 172.288 196.539 172.288ZM196.323 170.536C197.123 170.536 197.827 170.352 198.435 169.984C199.059 169.6 199.539 169.072 199.875 168.4C200.227 167.728 200.403 166.944 200.403 166.048C200.403 165.152 200.227 164.368 199.875 163.696C199.539 163.024 199.059 162.504 198.435 162.136C197.827 161.752 197.123 161.56 196.323 161.56C195.523 161.56 194.811 161.752 194.187 162.136C193.579 162.504 193.099 163.024 192.747 163.696C192.411 164.368 192.243 165.152 192.243 166.048C192.243 166.944 192.411 167.728 192.747 168.4C193.099 169.072 193.579 169.6 194.187 169.984C194.811 170.352 195.523 170.536 196.323 170.536ZM205.585 177.28L208.561 170.656H207.865L203.113 160.096H205.297L209.257 169.168L213.409 160.096H215.497L207.697 177.28H205.585ZM224.096 172V155.2H230C231.184 155.2 232.16 155.392 232.928 155.776C233.712 156.144 234.296 156.656 234.68 157.312C235.064 157.952 235.256 158.672 235.256 159.472C235.256 160.336 235.064 161.056 234.68 161.632C234.312 162.208 233.824 162.648 233.216 162.952C232.624 163.256 231.992 163.44 231.32 163.504L231.656 163.264C232.376 163.28 233.04 163.472 233.648 163.84C234.256 164.208 234.736 164.704 235.088 165.328C235.456 165.952 235.64 166.648 235.64 167.416C235.64 168.264 235.432 169.04 235.016 169.744C234.6 170.432 233.984 170.984 233.168 171.4C232.368 171.8 231.376 172 230.192 172H224.096ZM226.112 170.32H229.976C231.112 170.32 231.992 170.056 232.616 169.528C233.256 168.984 233.576 168.232 233.576 167.272C233.576 166.328 233.248 165.576 232.592 165.016C231.952 164.44 231.064 164.152 229.928 164.152H226.112V170.32ZM226.112 162.544H229.856C230.944 162.544 231.768 162.288 232.328 161.776C232.904 161.264 233.192 160.568 233.192 159.688C233.192 158.84 232.904 158.16 232.328 157.648C231.768 157.136 230.92 156.88 229.784 156.88H226.112V162.544ZM238.414 172V154.72H240.43V172H238.414ZM249.086 172.288C247.95 172.288 246.942 172.032 246.062 171.52C245.182 170.992 244.486 170.264 243.974 169.336C243.478 168.392 243.23 167.296 243.23 166.048C243.23 164.784 243.478 163.688 243.974 162.76C244.47 161.832 245.158 161.112 246.038 160.6C246.934 160.072 247.966 159.808 249.134 159.808C250.302 159.808 251.302 160.072 252.134 160.6C252.966 161.112 253.606 161.792 254.054 162.64C254.502 163.472 254.726 164.384 254.726 165.376C254.726 165.536 254.726 165.712 254.726 165.904C254.726 166.08 254.718 166.28 254.702 166.504H244.742V164.944H252.734C252.686 163.872 252.318 163.032 251.63 162.424C250.958 161.816 250.11 161.512 249.086 161.512C248.398 161.512 247.758 161.664 247.166 161.968C246.574 162.272 246.094 162.72 245.726 163.312C245.374 163.888 245.198 164.616 245.198 165.496V166.168C245.198 167.144 245.382 167.96 245.75 168.616C246.118 169.272 246.598 169.768 247.19 170.104C247.782 170.424 248.414 170.584 249.086 170.584C249.918 170.584 250.614 170.392 251.174 170.008C251.734 169.624 252.142 169.104 252.398 168.448H254.39C254.182 169.184 253.838 169.84 253.358 170.416C252.878 170.992 252.278 171.448 251.558 171.784C250.854 172.12 250.03 172.288 249.086 172.288ZM257.398 172V160.096H259.222L259.342 162.232C259.726 161.48 260.278 160.888 260.998 160.456C261.718 160.024 262.534 159.808 263.446 159.808C264.39 159.808 265.206 160 265.894 160.384C266.582 160.752 267.118 161.328 267.502 162.112C267.886 162.88 268.078 163.856 268.078 165.04V172H266.062V165.256C266.062 164.024 265.798 163.096 265.27 162.472C264.742 161.848 263.982 161.536 262.99 161.536C262.302 161.536 261.686 161.704 261.142 162.04C260.614 162.376 260.19 162.864 259.87 163.504C259.566 164.128 259.414 164.904 259.414 165.832V172H257.398ZM276.533 172.288C275.349 172.288 274.309 172.016 273.413 171.472C272.533 170.928 271.845 170.184 271.349 169.24C270.869 168.296 270.629 167.224 270.629 166.024C270.629 164.824 270.869 163.76 271.349 162.832C271.845 161.888 272.541 161.152 273.437 160.624C274.333 160.08 275.373 159.808 276.557 159.808C277.533 159.808 278.397 160.008 279.149 160.408C279.917 160.808 280.501 161.368 280.901 162.088V154.72H282.917V172H281.093L280.901 170.032C280.645 170.416 280.317 170.784 279.917 171.136C279.517 171.472 279.037 171.752 278.477 171.976C277.917 172.184 277.269 172.288 276.533 172.288ZM276.749 170.536C277.549 170.536 278.253 170.352 278.861 169.984C279.485 169.6 279.965 169.072 280.301 168.4C280.653 167.728 280.829 166.944 280.829 166.048C280.829 165.152 280.653 164.368 280.301 163.696C279.965 163.024 279.485 162.504 278.861 162.136C278.253 161.752 277.549 161.56 276.749 161.56C275.965 161.56 275.261 161.752 274.637 162.136C274.029 162.504 273.549 163.024 273.197 163.696C272.861 164.368 272.693 165.152 272.693 166.048C272.693 166.944 272.861 167.728 273.197 168.4C273.549 169.072 274.029 169.6 274.637 169.984C275.261 170.352 275.965 170.536 276.749 170.536Z" fill="white"/>
</svg>
