<svg width="83" height="31" viewBox="0 0 83 31" fill="none" xmlns="http://www.w3.org/2000/svg">
<path d="M18.7383 1.90735e-06L23.4229 4.94975L9.36917 19.799L4.68458 14.8492L18.7383 1.90735e-06Z" fill="#5856D6"/>
<path d="M9.36917 9.8995L18.7383 19.799L14.0537 24.7487L4.68458 14.8492L9.36917 9.8995Z" fill="#5856D6"/>
<path d="M9.36915 29.6985L4.68457 24.7487L18.7383 9.89948L23.4229 14.8492L9.36915 29.6985Z" fill="#0097A7"/>
<path d="M18.7383 19.799L9.36915 9.89949L14.0537 4.94974L23.4229 14.8492L18.7383 19.799Z" fill="#0097A7"/>
<rect width="6.81508" height="6.81508" transform="matrix(0.687385 0.726293 -0.687385 0.726293 14.0538 4.94974)" fill="#5856D6"/>
<path d="M33.8835 24V7.2H44.1075V8.856H35.8995V14.76H42.8835V16.392H35.8995V24H33.8835ZM46.7038 24V7.2H48.7198V22.392H56.5438V24H46.7038ZM59.3132 24V7.2H61.3292V24H59.3132ZM76.9873 26.28L71.3473 17.448H73.6753L79.3153 26.28H76.9873ZM72.5233 24.288C70.8753 24.288 69.4273 23.928 68.1793 23.208C66.9473 22.472 65.9793 21.456 65.2753 20.16C64.5873 18.848 64.2433 17.328 64.2433 15.6C64.2433 13.888 64.5873 12.384 65.2753 11.088C65.9793 9.776 66.9473 8.752 68.1793 8.016C69.4273 7.28 70.8753 6.912 72.5233 6.912C74.1873 6.912 75.6353 7.28 76.8673 8.016C78.1153 8.752 79.0833 9.776 79.7713 11.088C80.4593 12.384 80.8033 13.888 80.8033 15.6C80.8033 17.328 80.4593 18.848 79.7713 20.16C79.0833 21.456 78.1153 22.472 76.8673 23.208C75.6353 23.928 74.1873 24.288 72.5233 24.288ZM72.5233 22.512C73.7553 22.512 74.8353 22.24 75.7633 21.696C76.7073 21.136 77.4353 20.344 77.9473 19.32C78.4753 18.28 78.7393 17.04 78.7393 15.6C78.7393 14.16 78.4753 12.928 77.9473 11.904C77.4353 10.864 76.7073 10.072 75.7633 9.528C74.8353 8.984 73.7553 8.712 72.5233 8.712C71.2913 8.712 70.2033 8.984 69.2593 9.528C68.3313 10.072 67.6033 10.864 67.0753 11.904C66.5633 12.928 66.3073 14.16 66.3073 15.6C66.3073 17.04 66.5633 18.28 67.0753 19.32C67.6033 20.344 68.3313 21.136 69.2593 21.696C70.2033 22.24 71.2913 22.512 72.5233 22.512Z" fill="white"/>
</svg>
