<svg width="100" height="100" viewBox="0 0 100 100" fill="none" xmlns="http://www.w3.org/2000/svg">
<rect width="100" height="100" fill="white"/>
<path d="M10.8108 79.7297V70.2703H29.7297V89.1892H10.8108V79.7297ZM27.027 79.7297V72.973H13.5135V86.4865H27.027V79.7297ZM16.2162 79.7297V75.6757H24.3243V83.7838H16.2162V79.7297ZM35.1351 87.8378V86.4865H32.4324V81.0811H35.1351V72.973H37.8378V70.2703H32.4324V67.5676H21.6216V64.8648H24.3243V62.1621H18.9189V67.5676H16.2162V64.8648H10.8108V62.1621H16.2162V56.7567H13.5135V59.4594H10.8108V54.054H16.2162V56.7567H18.9189V59.4594H21.6216V56.7567H24.3243V59.4594H29.7297V56.7567H27.027V54.054H18.9189V51.3513H27.027V48.6486H18.9189V45.9459H16.2162V48.6486H10.8108V40.5405H13.5135V43.2432H29.7297V40.5405H27.027V37.8378H21.6216V40.5405H18.9189V37.8378H13.5135V32.4324H18.9189V37.8378H21.6216V35.1351H27.027V32.4324H29.7297V35.1351H27.027V37.8378H29.7297V40.5405H32.4324V35.1351H35.1351V32.4324H32.4324V24.3243H37.8378V27.027H40.5405V29.7297H37.8378V32.4324H40.5405V48.6486H35.1351V45.9459H32.4324V48.6486H29.7297V51.3513H27.027V54.054H29.7297V56.7567H32.4324V59.4594H37.8378V56.7567H35.1351V54.054H32.4324V51.3513H37.8378V56.7567H40.5405V51.3513H43.2432V56.7567H45.9459V48.6486H48.6487V45.9459H51.3514V48.6486H48.6487V51.3513H51.3514V54.054H59.4595V51.3513H56.7568V48.6486H54.0541V43.2432H51.3514V40.5405H54.0541V37.8378H56.7568V35.1351H54.0541V32.4324H51.3514V37.8378H48.6487V35.1351H45.9459V37.8378H43.2432V35.1351H45.9459V32.4324H43.2432V24.3243H40.5405V21.6216H43.2432V24.3243H45.9459V13.5135H48.6487V18.9189H54.0541V16.2162H51.3514V10.8108H56.7568V13.5135H54.0541V16.2162H59.4595V13.5135H62.1622V10.8108H67.5676V18.9189H62.1622V16.2162H59.4595V21.6216H62.1622V29.7297H64.8649V27.027H67.5676V40.5405H72.973V37.8378H70.2703V32.4324H75.6757V40.5405H81.0811V37.8378H78.3784V32.4324H81.0811V37.8378H83.7838V35.1351H89.1892V40.5405H86.4865V37.8378H83.7838V40.5405H81.0811V48.6486H83.7838V51.3513H81.0811V54.054H75.6757V56.7567H72.973V59.4594H67.5676V56.7567H64.8649V54.054H62.1622V59.4594H64.8649V62.1621H72.973V64.8648H78.3784V62.1621H75.6757V59.4594H78.3784V56.7567H81.0811V59.4594H83.7838V62.1621H86.4865V56.7567H83.7838V54.054H89.1892V62.1621H86.4865V67.5676H89.1892V72.973H86.4865V81.0811H89.1892V83.7838H81.0811V89.1892H72.973V86.4865H78.3784V83.7838H72.973V78.3784H70.2703V83.7838H67.5676V86.4865H70.2703V89.1892H64.8649V81.0811H62.1622V86.4865H59.4595V83.7838H56.7568V72.973H59.4595V81.0811H62.1622V72.973H64.8649V67.5676H62.1622V64.8648H59.4595V62.1621H62.1622V59.4594H59.4595V56.7567H56.7568V67.5676H59.4595V70.2703H54.0541V75.6757H51.3514V81.0811H54.0541V83.7838H51.3514V86.4865H56.7568V89.1892H51.3514V86.4865H48.6487V83.7838H45.9459V89.1892H35.1351V87.8378ZM43.2432 83.7838V81.0811H45.9459V72.973H40.5405V75.6757H43.2432V78.3784H37.8378V81.0811H35.1351V83.7838H37.8378V86.4865H43.2432V83.7838ZM81.0811 81.0811V78.3784H83.7838V72.973H86.4865V70.2703H83.7838V62.1621H81.0811V70.2703H83.7838V72.973H81.0811V75.6757H78.3784V83.7838H81.0811V81.0811ZM67.5676 79.7297V78.3784H64.8649V81.0811H67.5676V79.7297ZM51.3514 74.3243V72.973H48.6487V75.6757H51.3514V74.3243ZM75.6757 71.6216V67.5676H67.5676V75.6757H75.6757V71.6216ZM70.2703 71.6216V70.2703H72.973V72.973H70.2703V71.6216ZM48.6487 68.9189V67.5676H54.0541V64.8648H48.6487V62.1621H45.9459V64.8648H48.6487V67.5676H43.2432V64.8648H40.5405V67.5676H37.8378V64.8648H35.1351V62.1621H32.4324V59.4594H29.7297V62.1621H27.027V64.8648H29.7297V62.1621H32.4324V64.8648H35.1351V67.5676H37.8378V70.2703H48.6487V68.9189ZM40.5405 60.8108V59.4594H37.8378V62.1621H40.5405V60.8108ZM54.0541 59.4594V56.7567H48.6487V59.4594H51.3514V62.1621H54.0541V59.4594ZM70.2703 55.4054V54.054H67.5676V56.7567H70.2703V55.4054ZM75.6757 52.7027V51.3513H78.3784V43.2432H75.6757V45.9459H72.973V48.6486H70.2703V45.9459H64.8649V43.2432H62.1622V40.5405H64.8649V32.4324H62.1622V29.7297H59.4595V27.027H56.7568V29.7297H54.0541V21.6216H56.7568V24.3243H59.4595V21.6216H56.7568V18.9189H54.0541V21.6216H51.3514V29.7297H54.0541V32.4324H56.7568V29.7297H59.4595V37.8378H56.7568V40.5405H54.0541V43.2432H56.7568V48.6486H59.4595V45.9459H64.8649V48.6486H67.5676V51.3513H72.973V54.054H75.6757V52.7027ZM72.973 50V48.6486H75.6757V51.3513H72.973V50ZM29.7297 47.2973V45.9459H32.4324V43.2432H29.7297V45.9459H27.027V48.6486H29.7297V47.2973ZM37.8378 41.8919V40.5405H35.1351V43.2432H37.8378V41.8919ZM37.8378 28.3784V27.027H35.1351V29.7297H37.8378V28.3784ZM48.6487 27.027V24.3243H45.9459V29.7297H48.6487V27.027ZM64.8649 14.8648V13.5135H62.1622V16.2162H64.8649V14.8648ZM86.4865 87.8378V86.4865H89.1892V89.1892H86.4865V87.8378ZM86.4865 48.6486V45.9459H83.7838V43.2432H86.4865V45.9459H89.1892V51.3513H86.4865V48.6486ZM10.8108 20.2703V10.8108H29.7297V29.7297H10.8108V20.2703ZM27.027 20.2703V13.5135H13.5135V27.027H27.027V20.2703ZM16.2162 20.2703V16.2162H24.3243V24.3243H16.2162V20.2703ZM70.2703 20.2703V10.8108H89.1892V29.7297H70.2703V20.2703ZM86.4865 20.2703V13.5135H72.973V27.027H86.4865V20.2703ZM75.6757 20.2703V16.2162H83.7838V24.3243H75.6757V20.2703ZM32.4324 20.2703V18.9189H35.1351V21.6216H32.4324V20.2703ZM37.8378 17.5675V16.2162H35.1351V10.8108H37.8378V13.5135H40.5405V10.8108H43.2432V13.5135H40.5405V18.9189H37.8378V17.5675Z" fill="black"/>
</svg>
