<svg width="120" height="24" viewBox="0 0 120 24" fill="none" xmlns="http://www.w3.org/2000/svg">
<path d="M0 0.932739H8.79751C10.4732 0.932739 11.73 1.35125 12.661 2.04877C13.685 2.88579 14.2436 4.09482 14.2436 5.58286C14.2436 7.30341 13.5454 8.37293 12.149 9.02395V9.11695C14.0109 9.72147 15.0815 11.3955 15.0815 13.3951C15.0815 15.3016 14.3367 16.7897 13.1265 17.7197C12.1024 18.4637 10.7991 18.7892 9.03025 18.7892H0V0.932739ZM7.91311 7.90792C8.84407 7.90792 9.54228 7.39641 9.54228 6.32688C9.54228 5.30385 8.84406 4.79234 7.86656 4.79234H4.84096V7.86142H7.91311V7.90792ZM8.33204 14.8366C9.40264 14.8366 10.1939 14.1856 10.1939 13.0231C10.1939 11.7675 9.35609 11.2095 8.33204 11.2095H4.88751V14.8831H8.33204V14.8366ZM15.8728 0.932739H20.481V18.8357H15.8728V0.932739ZM21.4119 12.465C21.4119 8.41943 24.0186 5.72236 28.0683 5.72236C32.1179 5.72236 34.678 8.46593 34.678 12.465C34.678 16.5106 32.1179 19.2077 28.0683 19.2077C24.0186 19.2077 21.4119 16.5106 21.4119 12.465ZM30.0698 12.465C30.0698 10.233 29.3716 8.83794 27.9752 8.83794C26.5787 8.83794 25.9271 10.233 25.9271 12.465C25.9271 14.6971 26.5787 16.1386 27.9752 16.1386C29.3716 16.0921 30.0698 14.6971 30.0698 12.465ZM35.1901 12.465C35.1901 8.41943 37.7967 5.72236 41.8464 5.72236C45.896 5.72236 48.4096 8.41943 48.4096 12.465C48.4096 16.5106 45.8495 19.2077 41.7998 19.2077C37.7967 19.2077 35.1901 16.5106 35.1901 12.465ZM43.8479 12.465C43.8479 10.233 43.1497 8.83794 41.7533 8.83794C40.3569 8.83794 39.7052 10.233 39.7052 12.465C39.7052 14.6971 40.3569 16.1386 41.7533 16.1386C43.1497 16.0921 43.8479 14.6971 43.8479 12.465ZM49.3406 6.04787H53.623V7.95442H53.7161C54.5539 6.46638 55.7176 5.67586 57.5795 5.67586C59.2087 5.67586 60.4189 6.46638 61.0241 7.86142H61.1171C62.1412 6.18738 63.4911 5.67586 65.0737 5.67586C68.0528 5.67586 69.3095 7.86142 69.3095 10.791V18.7892H64.841V11.5815C64.841 10.2795 64.422 9.44246 63.3049 9.44246C62.1877 9.44246 61.6292 10.4655 61.6292 11.8605V18.7892H57.1606V11.5815C57.1606 10.2795 56.7417 9.44246 55.6245 9.44246C54.5074 9.44246 53.9488 10.4655 53.9488 11.8605V18.7892H49.3406V6.04787ZM74.9418 17.1152H74.8953V18.7892H70.6129V0.932739H75.0815V7.34991H75.1746C76.0124 6.23388 77.1761 5.62936 78.8053 5.62936C82.0171 5.62936 83.879 8.51244 83.879 12.372C83.879 16.6966 81.8774 19.2077 78.526 19.2077C77.1296 19.2077 75.6866 18.5567 74.9418 17.1152ZM79.2708 12.3255C79.2708 10.2795 78.526 8.93095 77.1761 8.93095C75.7797 8.93095 74.9418 10.2795 74.9418 12.3255C74.9418 14.3716 75.8262 15.7201 77.1761 15.7201C78.526 15.7201 79.2708 14.4181 79.2708 12.3255ZM84.391 12.4185C84.391 8.41943 87.0442 5.67586 90.8611 5.67586C92.7696 5.67586 94.2126 6.28038 95.3297 7.34991C96.8192 8.79144 97.4709 11.0235 97.4244 13.6276H88.8596C89.0458 15.2086 89.7905 16.0456 91.1404 16.0456C91.9317 16.0456 92.63 15.6736 92.9092 14.8366H97.2382C96.4934 17.7662 94.2126 19.2077 91.0008 19.2077C87.0442 19.1612 84.391 16.4641 84.391 12.4185ZM88.8596 11.07H92.9558C92.8627 9.53546 92.0248 8.74494 90.9542 8.74494C89.6974 8.69844 88.9992 9.58196 88.8596 11.07ZM102.498 8.23343H102.591C103.522 6.46638 104.732 5.76887 106.268 5.76887C106.641 5.76887 106.874 5.81537 107.013 5.90837V9.81447H106.92C104.267 9.34946 102.731 10.605 102.731 13.4881V18.8357H98.2157V6.04787H102.498V8.23343ZM107.479 18.8357H111.808C111.994 19.3937 112.552 19.9052 113.623 19.9052C115.066 19.9052 115.578 19.0217 115.578 17.6732V16.7432H115.485C114.787 17.5802 113.809 18.1847 112.413 18.1847C109.666 18.1847 107.246 16.1386 107.246 12.1395C107.246 8.46594 109.201 5.62936 112.18 5.62936C113.902 5.62936 114.926 6.32688 115.625 7.39641H115.718V6.00137H120V17.0687C120 19.1147 119.302 20.6958 118.231 21.6258C117.114 22.6023 115.531 23.0208 113.716 23.0208C110.272 23.0673 107.898 21.6723 107.479 18.8357ZM115.764 11.9535C115.764 10.3725 115.019 9.07045 113.716 9.07045C112.459 9.07045 111.668 10.1865 111.668 11.9535C111.668 13.6741 112.459 14.8831 113.716 14.8831C114.973 14.8831 115.764 13.6276 115.764 11.9535Z" fill="white"/>
</svg>
