<svg width="80" height="60" viewBox="0 0 80 60" fill="none" xmlns="http://www.w3.org/2000/svg">
<g clip-path="url(#clip0_2002_8044)">
<path d="M14.0147 51.0655C13.7199 49.6483 12.5482 49.2709 11.2348 49.1495C6.9961 48.7606 6.24535 51.9031 6.24535 53.2298C6.24535 55.4981 6.91462 57.3755 11.0738 57.3755C11.842 57.3755 13.9604 56.5918 13.9604 55.319H19.9451C19.7026 59.095 13.3028 60 10.5112 60C4.72833 60 -0.224296 58.9313 0.0162548 53.2818C0.186968 49.2477 4.02802 46.4172 11.6733 46.5924C15.9333 46.6926 20.0285 48.0077 20.044 51.0655H14.0147ZM73.9564 51.0655C73.6635 49.6483 72.4898 49.2709 71.1784 49.1495C66.9397 48.7606 66.189 51.9031 66.189 53.2298C66.189 55.4981 66.8563 57.3755 71.0194 57.3755C71.7876 57.3755 73.904 56.5918 73.904 55.319H79.8887C79.6462 59.095 73.2483 60 70.4549 60C64.6719 60 59.7213 58.9313 59.9599 53.2818C60.1306 49.2477 63.9736 46.4172 71.6188 46.5924C75.8789 46.6926 79.9721 48.0077 79.9896 51.0655H73.9564ZM21.1149 46.8639H28.8842L35.513 56.0815H35.5653V46.8639H40.5451V59.663H33.1016L26.147 50.4435H26.0946V59.663H21.1149V46.8639ZM42.0835 46.8639H51.5193C56.0548 46.8639 58.7222 48.1194 58.7222 50.018C58.7222 51.1386 57.6048 52.5231 55.1159 52.9313V52.9679C58.1131 53.1451 59.2188 55.0244 59.2188 56.1508C59.2188 58.4076 56.6193 59.663 51.5464 59.663H42.0835V46.8639ZM47.5444 51.8357H49.1099C51.5193 51.8357 52.7977 51.6489 52.7977 50.6572C52.7977 49.5924 51.7327 49.24 49.5638 49.24H47.5424L47.5444 51.8357ZM47.5444 56.9788H49.1099C52.014 56.9788 53.079 56.6765 53.079 55.6848C53.079 54.62 51.7346 54.2657 49.5658 54.2657H47.5444V56.9788Z" fill="white"/>
<path d="M24.3041 16.8601L35.1425 41.4609L12.7829 26.2645C7.17264 22.579 8.30943 16.2593 11.4191 13.475C15.815 9.78951 22.0305 11.0681 24.3041 16.8601Z" fill="white"/>
<path d="M39.1581 11.068L35.2181 38.6014L24.0014 12.4236C21.5765 5.87868 27.0316 1.59049 30.6709 1.5154C34.8398 1.06289 40.0679 4.22271 39.1581 11.068Z" fill="white"/>
<path d="M56.2119 12.3485L45.0709 38.6033L41.5092 14.9056C41.2047 11.2952 43.4802 11.2201 44.3144 10.5423C44.163 10.0147 43.0263 10.0147 43.0263 10.0147H40.904C40.677 3.84527 45.5268 1.13795 49.4687 1.43834C53.7114 1.59046 58.4855 6.47942 56.2119 12.3485Z" fill="white"/>
<path d="M67.5819 26.1142L45.2242 41.3877L55.758 17.0873C58.9414 9.41397 66.3694 10.9178 69.0213 13.8524C71.9001 16.7099 72.7343 22.5038 67.5819 26.1142Z" fill="white"/>
<path d="M69.9291 44.095H44.0854L65.0793 29.5744C70.2337 26.1893 75.6907 29.274 77.1301 33.7124C78.6471 38.6784 75.2348 44.095 69.9291 44.095Z" fill="white"/>
<path d="M3.00568 33.4121C4.97664 28.2959 10.4336 26.4898 15.2834 29.5745L36.2792 44.095H10.8119C5.50624 44.095 1.33928 39.2793 3.00568 33.4121Z" fill="white"/>
</g>
<defs>
<clipPath id="clip0_2002_8044">
<rect width="80" height="60" fill="white"/>
</clipPath>
</defs>
</svg>
