<svg width="100" height="46" viewBox="0 0 100 46" fill="none" xmlns="http://www.w3.org/2000/svg">
<g clip-path="url(#clip0_2002_8065)">
<path d="M31.6757 0.0232983C31.6757 0.00256348 23.0731 0.0232983 23.0731 0.0232983C10.3394 0.0232983 0.0163574 10.3106 0.0163574 23.0001C0.0163574 35.6897 10.3394 45.977 23.0731 45.977L39.2479 45.9635C43.3115 45.9635 46.6056 42.7063 46.6056 38.6567L46.6142 24.6426L57.794 42.215C59.306 44.4954 61.9014 45.9998 64.8495 45.9998C69.5164 45.9998 73.3001 42.2294 73.3001 37.5785L73.2976 24.6425L84.4774 42.2149C85.9894 44.4952 88.5848 45.9996 91.5329 45.9996C96.1998 45.9996 99.9834 42.2293 99.9834 37.5783L99.9809 0.00256348H94.2285V37.5788C94.2285 39.0623 93.0217 40.2649 91.533 40.2649C90.6026 40.2649 89.7823 39.7953 89.298 39.0807L69.399 7.84548C69.2757 7.66674 69.0982 7.532 68.8926 7.46097C68.6869 7.38994 68.4638 7.38634 68.256 7.4507C68.0481 7.51506 67.8664 7.64401 67.7373 7.81868C67.6083 7.99335 67.5387 8.20459 67.5388 8.42149L67.5451 37.5789C67.5451 39.0624 66.3383 40.265 64.8496 40.265C63.9192 40.265 63.099 39.7955 62.6146 39.0808L42.7156 7.84548C42.5923 7.66677 42.4148 7.53206 42.2091 7.46106C42.0035 7.39005 41.7804 7.38646 41.5726 7.45082C41.3647 7.51517 41.183 7.64409 41.0539 7.81874C40.9249 7.99339 40.8552 8.2046 40.8552 8.42149L40.8508 38.657C40.8508 39.5392 40.1333 40.254 39.2481 40.254L23.0733 40.242C13.5179 40.2418 5.77147 32.5223 5.77147 23.0001C5.77147 13.478 13.5179 5.75832 23.0731 5.75832L31.6757 5.75199V0.0232983Z" fill="white"/>
<path d="M32.6031 32.8771C32.8204 32.8771 33.0289 32.791 33.1826 32.6378C33.3363 32.4847 33.4227 32.2769 33.4227 32.0603L33.4249 8.42113C33.4247 3.7705 37.2082 0 41.8751 0C44.8337 0 47.4374 1.51526 48.947 3.80947L60.088 21.2258L60.1081 8.42128C60.1081 3.7705 63.8914 0 68.5585 0C71.5171 0 74.1206 1.51526 75.6304 3.80947L86.7712 21.2258V0.00249994H92.5632L92.5529 37.5787C92.5528 37.792 92.4855 37.9999 92.3603 38.1729C92.2351 38.3459 92.0585 38.4753 91.8554 38.5427C91.6524 38.6102 91.4331 38.6122 91.2288 38.5486C91.0245 38.4851 90.8455 38.359 90.717 38.1884L70.7936 6.9194C70.3092 6.20501 69.4889 5.73517 68.5585 5.73517C67.0699 5.73517 65.8631 6.93779 65.8631 8.42128L65.8695 37.5787C65.8694 37.792 65.802 37.9999 65.6768 38.1729C65.5516 38.3458 65.375 38.4752 65.1719 38.5426C64.9689 38.6101 64.7497 38.6121 64.5454 38.5486C64.3411 38.485 64.162 38.359 64.0335 38.1884L44.1103 6.9194C43.6259 6.20501 42.8057 5.73517 41.8751 5.73517C40.3866 5.73517 39.1798 6.93779 39.1798 8.42128L39.1919 37.8097C39.1919 38.0264 39.1056 38.2341 38.9519 38.3873C38.7982 38.5404 38.5897 38.6265 38.3723 38.6265L23.0732 38.6234C14.4432 38.6234 7.44702 31.6002 7.44702 23.0002C7.44702 14.4001 14.4432 7.37675 23.0732 7.37675C23.0732 7.37675 31.6758 7.34337 31.6758 7.37675V13.1697L23.0732 13.1632C17.6216 13.1632 13.2021 17.5674 13.2021 23.0002C13.2021 28.4327 17.6216 32.8882 23.0732 32.8882L32.6031 32.8771Z" fill="white"/>
</g>
<defs>
<clipPath id="clip0_2002_8065">
<rect width="100" height="46" fill="white"/>
</clipPath>
</defs>
</svg>
