<svg width="120" height="34" viewBox="0 0 120 34" fill="none" xmlns="http://www.w3.org/2000/svg">
<g clip-path="url(#clip0_2002_8055)">
<path d="M54.6469 22.6629H52.6724C52.4953 22.6629 52.4292 22.5014 52.3493 22.3446L50.0196 18.4757H49.662C49.2398 18.4757 47.9326 18.4303 47.5607 18.41V22.3446C47.5607 22.5188 47.43 22.6629 47.2515 22.6629H45.6345C45.5491 22.6624 45.4674 22.6287 45.407 22.5691C45.3466 22.5095 45.3124 22.4288 45.3119 22.3446V11.8882C45.3119 11.568 45.5034 11.4566 45.8289 11.4093C46.6713 11.2814 48.4792 11.2025 49.6615 11.2025C52.1516 11.2025 54.452 12.0804 54.452 14.8084V14.9524C54.452 16.642 53.5952 17.5666 52.2693 18.0743L54.8067 22.3446C54.8402 22.3928 54.8402 22.4376 54.8402 22.4735C54.8407 22.5816 54.7761 22.6629 54.6469 22.6629ZM52.2205 14.8084C52.2205 13.6118 51.2794 13.1018 49.662 13.1018C49.3212 13.1018 47.8498 13.1334 47.5607 13.1646V16.625C47.8168 16.6406 49.3839 16.6732 49.662 16.6732C51.3259 16.6732 52.2205 16.3559 52.2205 14.9524V14.8084ZM59.1526 19.5198C59.1526 20.858 59.2047 20.893 60.4277 20.893H64.5218C64.6076 20.8932 64.6898 20.9269 64.7506 20.9867C64.8114 21.0465 64.8458 21.1275 64.8463 21.2122V22.2313C64.8463 22.4565 64.7649 22.5363 64.5218 22.567C64.0048 22.6473 62.9513 22.7894 61.028 22.7894C58.3436 22.7894 56.9191 22.8078 56.9191 19.5198V14.4717C56.9191 11.1846 58.3436 11.203 61.028 11.203C62.9513 11.203 64.0048 11.347 64.5218 11.4259C64.7649 11.4566 64.8463 11.5378 64.8463 11.7616V12.7811C64.8463 12.9554 64.7003 13.1023 64.5218 13.1023H60.4277C59.2047 13.1023 59.1526 13.1377 59.1526 14.4717V15.9356H64.3284C64.4138 15.9359 64.4956 15.9694 64.5563 16.0288C64.6169 16.0882 64.6514 16.1687 64.6524 16.2529V17.4047C64.6517 17.4891 64.6173 17.5699 64.5566 17.6296C64.496 17.6892 64.414 17.7229 64.3284 17.7234H59.1526V19.5198ZM72.1077 22.7894C69.5061 22.7894 67.2645 21.6736 67.2645 18.2731V11.6336C67.2645 11.4566 67.4124 11.3295 67.59 11.3295H69.1883C69.3678 11.3295 69.5123 11.4566 69.5123 11.6336V18.2731C69.5123 20.093 70.3648 20.9563 72.1081 20.9563C73.8562 20.9563 74.7083 20.093 74.7083 18.2731V11.6336C74.7083 11.4566 74.8528 11.3295 75.0304 11.3295H76.6311C76.8106 11.3295 76.9566 11.4566 76.9566 11.6336V18.2731C76.9556 21.6731 74.713 22.7894 72.1077 22.7894ZM87.5897 13.1792H84.3634V22.3446C84.3621 22.4294 84.327 22.5103 84.2657 22.5698C84.2045 22.6293 84.122 22.6628 84.036 22.6629H82.4354C82.3498 22.6625 82.2678 22.6289 82.2072 22.5693C82.1465 22.5098 82.1121 22.429 82.1113 22.3446V13.1792H78.8827C78.707 13.1792 78.561 13.0697 78.561 12.894V11.6336C78.561 11.4566 78.707 11.3295 78.8827 11.3295H87.5892C87.7639 11.3295 87.9099 11.4566 87.9099 11.6336V12.894C87.9104 13.0697 87.7648 13.1792 87.5897 13.1792ZM109.552 22.6629H107.578C107.4 22.6629 107.337 22.5014 107.256 22.3446L104.926 18.4757H104.565C104.147 18.4757 102.838 18.4303 102.464 18.41V22.3446C102.464 22.5188 102.335 22.6629 102.159 22.6629H100.543C100.458 22.6627 100.375 22.6292 100.315 22.5696C100.254 22.51 100.219 22.4291 100.219 22.3446V11.8882C100.219 11.568 100.41 11.4566 100.735 11.4093C101.575 11.2814 103.386 11.2025 104.564 11.2025C107.057 11.2025 109.356 12.0804 109.356 14.8084V14.9524C109.356 16.642 108.497 17.5666 107.172 18.0743L109.714 22.3446C109.739 22.383 109.75 22.4282 109.747 22.4735C109.747 22.5816 109.681 22.6629 109.552 22.6629ZM107.126 14.8084C107.126 13.6118 106.185 13.1018 104.565 13.1018C104.227 13.1018 102.756 13.1334 102.464 13.1646V16.625C102.726 16.6406 104.294 16.6732 104.565 16.6732C106.233 16.6732 107.126 16.3559 107.126 14.9524V14.8084ZM115.725 22.7965C114.295 22.7965 112.847 22.5547 112.069 22.3786C111.909 22.3465 111.762 22.2355 111.762 22.0603V20.9109C111.762 20.7367 111.909 20.6073 112.069 20.6073H112.101C112.749 20.6876 114.263 20.8949 115.758 20.8949C117.196 20.8949 117.637 20.3868 117.637 19.4626C117.637 18.2655 114.741 17.603 113.328 17.0288C111.921 16.4546 111.422 15.3552 111.422 14.2398C111.422 12.4836 112.855 11.2072 115.862 11.2072C117.404 11.2072 118.815 11.4962 119.365 11.6266C119.528 11.6587 119.655 11.7706 119.655 11.9293V13.1098C119.655 13.2675 119.544 13.3964 119.38 13.3964H119.349C118.281 13.3015 117.174 13.1074 115.768 13.1074C114.569 13.1074 113.673 13.5221 113.673 14.2398C113.673 14.7649 114.281 15.2471 114.999 15.5285C115.717 15.8076 116.658 16.1689 117.734 16.5958C119.096 17.1393 119.98 17.9312 119.98 19.4626C119.979 21.0729 118.961 22.7965 115.725 22.7965ZM91.8072 19.5198C91.8072 20.858 91.8575 20.893 93.0833 20.893H97.1802C97.2654 20.8942 97.3467 20.9283 97.4066 20.988C97.4666 21.0477 97.5004 21.1282 97.5009 21.2122V22.2313C97.5009 22.4565 97.4196 22.5363 97.1802 22.567C96.6594 22.6473 95.6078 22.7894 93.6845 22.7894C90.9949 22.7894 89.5737 22.8078 89.5737 19.5198V14.4717C89.5737 11.1846 90.9949 11.203 93.6845 11.203C95.6078 11.203 96.6594 11.347 97.1802 11.4259C97.4196 11.4566 97.5009 11.5378 97.5009 11.7616V12.7811C97.5009 12.9554 97.354 13.1023 97.1802 13.1023H93.0833C91.8575 13.1023 91.8072 13.1377 91.8072 14.4717V15.9356H96.9835C97.163 15.9356 97.3042 16.0806 97.3042 16.2529V17.4047C97.3045 17.4889 97.2708 17.5697 97.2107 17.6295C97.1506 17.6893 97.0688 17.723 96.9835 17.7234H91.8072V19.5198ZM25.9226 10.7912C25.7056 11.0169 25.4067 11.1485 25.0915 11.157C24.7763 11.1655 24.4706 11.0502 24.2415 10.8365C24.1276 10.731 24.0359 10.6043 23.9719 10.4636C23.9078 10.323 23.8726 10.1713 23.8682 10.0172C23.8639 9.86307 23.8905 9.70963 23.9465 9.5657C24.0025 9.42177 24.0868 9.2902 24.1946 9.17856C24.3013 9.06622 24.4295 8.97577 24.5718 8.91239C24.7141 8.84901 24.8676 8.81394 25.0237 8.80921C25.1797 8.80447 25.3351 8.83015 25.4811 8.88478C25.627 8.93941 25.7606 9.02191 25.8742 9.12756C26.1039 9.34203 26.238 9.63763 26.2471 9.94951C26.2561 10.2614 26.1394 10.5641 25.9226 10.7912ZM14.0684 8.12408C13.9548 8.01926 13.8039 7.96292 13.6484 7.96734C13.493 7.97177 13.3456 8.03659 13.2384 8.1477C13.1322 8.2594 13.0752 8.40799 13.0797 8.56103C13.0841 8.71408 13.1498 8.85917 13.2623 8.96464C13.3759 9.06958 13.5269 9.1259 13.6824 9.1213C13.838 9.1167 13.9853 9.05155 14.0923 8.94008C14.1984 8.82854 14.2554 8.68011 14.2509 8.52721C14.2464 8.37432 14.1808 8.22939 14.0684 8.12408ZM17.0404 7.0087C16.9003 6.87955 16.7142 6.81031 16.5225 6.81606C16.3309 6.82181 16.1494 6.90209 16.0175 7.03939C15.9522 7.10781 15.9012 7.18825 15.8674 7.27612C15.8337 7.36399 15.8178 7.45757 15.8206 7.5515C15.8235 7.64543 15.8452 7.73788 15.8843 7.82357C15.9234 7.90925 15.9792 7.9865 16.0486 8.05089C16.189 8.17988 16.3753 8.24889 16.567 8.24287C16.7587 8.23686 16.9403 8.1563 17.072 8.01878C17.2028 7.88031 17.2728 7.69649 17.2669 7.50732C17.261 7.31815 17.1796 7.13894 17.0404 7.0087ZM20.2283 6.77872C20.0506 6.61426 19.8141 6.52587 19.5705 6.53286C19.3269 6.53985 19.096 6.64165 18.9283 6.81603C18.7695 6.9927 18.6866 7.22343 18.6973 7.45933C18.708 7.69522 18.8113 7.91775 18.9854 8.07977C19.1596 8.24179 19.3908 8.33056 19.6301 8.32729C19.8694 8.32401 20.0981 8.22894 20.2676 8.06222C20.4344 7.88664 20.5239 7.65302 20.5166 7.41248C20.5092 7.17194 20.4056 6.94406 20.2283 6.77872ZM23.2444 7.54042C23.1457 7.44814 23.0295 7.37601 22.9025 7.32817C22.7754 7.28032 22.6401 7.2577 22.5042 7.2616C22.3682 7.26551 22.2344 7.29586 22.1104 7.35092C21.9864 7.40598 21.8747 7.48466 21.7816 7.58244C21.6883 7.67983 21.6153 7.7944 21.5669 7.91961C21.5185 8.04482 21.4955 8.17821 21.4993 8.31218C21.5031 8.44614 21.5337 8.57805 21.5892 8.70037C21.6447 8.82269 21.724 8.93303 21.8228 9.02508C22.0228 9.21045 22.2891 9.31009 22.5634 9.30222C22.8378 9.29434 23.0978 9.17958 23.2865 8.98306C23.4744 8.78602 23.5755 8.52355 23.5676 8.25315C23.5597 7.98275 23.4435 7.72646 23.2444 7.54042ZM11.5487 10.0772C11.464 9.99928 11.3517 9.95746 11.2359 9.96082C11.1202 9.96418 11.0106 10.0125 10.9307 10.0951C10.8911 10.1361 10.8601 10.1845 10.8395 10.2373C10.8189 10.2902 10.8091 10.3465 10.8107 10.4032C10.8123 10.4598 10.8251 10.5155 10.8486 10.5672C10.8721 10.6189 10.9057 10.6655 10.9475 10.7043C10.989 10.7435 11.0379 10.7742 11.0916 10.7946C11.1452 10.815 11.2024 10.8246 11.2598 10.8231C11.3172 10.8215 11.3738 10.8087 11.4262 10.7854C11.4785 10.7621 11.5257 10.7287 11.5649 10.6873C11.6447 10.6042 11.6877 10.4933 11.6847 10.3789C11.6816 10.2646 11.6327 10.156 11.5487 10.0772ZM26.7693 20.7201C26.6626 20.832 26.6051 20.9811 26.6096 21.1347C26.6141 21.2883 26.6801 21.4338 26.7932 21.5394C26.9078 21.64 27.0576 21.6925 27.2107 21.6857C27.3639 21.679 27.5083 21.6136 27.6134 21.5035C27.7184 21.3933 27.7758 21.2471 27.7733 21.0959C27.7707 20.9446 27.7085 20.8004 27.5998 20.6937C27.4859 20.589 27.3346 20.533 27.179 20.5379C27.0234 20.5429 26.8761 20.6084 26.7693 20.7201ZM27.5208 17.7319C27.3905 17.8703 27.3208 18.0539 27.327 18.2427C27.3332 18.4315 27.4147 18.6103 27.5538 18.7401C27.623 18.8047 27.7043 18.8552 27.7933 18.8886C27.8822 18.9221 27.977 18.9378 28.0721 18.935C28.1673 18.9322 28.2609 18.9109 28.3477 18.8722C28.4345 18.8336 28.5126 18.7784 28.5777 18.7099C28.6432 18.6418 28.6943 18.5615 28.7281 18.4738C28.762 18.386 28.7779 18.2926 28.7749 18.1987C28.7719 18.1049 28.7501 18.0126 28.7108 17.9271C28.6714 17.8416 28.6153 17.7647 28.5456 17.7008C28.4052 17.5714 28.2187 17.5021 28.0267 17.508C27.8347 17.5138 27.6529 17.5943 27.5208 17.7319ZM27.2901 14.585C27.2072 14.6717 27.1424 14.7736 27.0995 14.885C27.0566 14.9964 27.0364 15.1151 27.0401 15.2342C27.0438 15.3533 27.0713 15.4706 27.121 15.5792C27.1707 15.6878 27.2417 15.7856 27.3298 15.8671C27.4177 15.9489 27.521 16.0127 27.634 16.055C27.7469 16.0973 27.8671 16.1172 27.9879 16.1136C28.1086 16.1099 28.2274 16.0828 28.3375 16.0338C28.4476 15.9848 28.5468 15.9148 28.6294 15.8279C28.7914 15.6518 28.8768 15.4201 28.8673 15.1825C28.8577 14.9449 28.7541 14.7205 28.5785 14.5576C28.4029 14.3946 28.1696 14.3062 27.9286 14.3114C27.6876 14.3165 27.4584 14.4148 27.2901 14.585ZM26.1767 11.6686C26.0364 11.8157 25.9434 12.0005 25.9095 12.1997C25.8757 12.399 25.9025 12.6036 25.9867 12.7878C26.0708 12.972 26.2084 13.1274 26.3821 13.2344C26.5558 13.3414 26.7577 13.3952 26.9624 13.3889C27.167 13.3826 27.3652 13.3166 27.5318 13.1991C27.6984 13.0817 27.826 12.9181 27.8983 12.7291C27.9707 12.5402 27.9846 12.3342 27.9382 12.1375C27.8919 11.9407 27.7875 11.7619 27.6381 11.6237C27.2255 11.2374 26.5697 11.2596 26.1767 11.6686ZM25.1538 23.3122C25.0748 23.3958 25.0325 23.5068 25.0361 23.6211C25.0397 23.7354 25.0889 23.8436 25.173 23.9223C25.2148 23.961 25.264 23.9911 25.3177 24.0109C25.3714 24.0307 25.4286 24.0399 25.4859 24.0378C25.5432 24.0357 25.5995 24.0225 25.6516 23.9989C25.7037 23.9752 25.7506 23.9417 25.7895 23.9001C25.8293 23.8595 25.8604 23.8114 25.881 23.7588C25.9017 23.7061 25.9114 23.6499 25.9097 23.5935C25.9079 23.5371 25.8947 23.4816 25.8709 23.4302C25.847 23.3789 25.813 23.3328 25.7708 23.2947C25.7294 23.2554 25.6804 23.2247 25.6268 23.2043C25.5732 23.1839 25.516 23.1742 25.4586 23.1758C25.4012 23.1774 25.3446 23.1903 25.2923 23.2137C25.24 23.2372 25.1929 23.2706 25.1538 23.3122ZM12.5285 24.8204C12.7417 24.5933 12.8553 24.2923 12.8447 23.9829C12.8341 23.6735 12.7001 23.3808 12.4718 23.1683C12.2435 22.9559 11.9395 22.841 11.6258 22.8486C11.3121 22.8561 11.0141 22.9856 10.7967 23.2088C10.591 23.4372 10.4836 23.7356 10.4972 24.0409C10.5109 24.3461 10.6445 24.6341 10.8698 24.8437C11.0951 25.0534 11.3943 25.1682 11.7039 25.1638C12.0136 25.1595 12.3094 25.0363 12.5285 24.8204ZM9.95327 13.2784C10.0062 13.2231 10.0475 13.158 10.0749 13.0869C10.1023 13.0159 10.1153 12.9402 10.113 12.8642C10.1108 12.7881 10.0934 12.7133 10.0618 12.6439C10.0303 12.5745 9.98517 12.512 9.9291 12.4598C9.87303 12.4076 9.80709 12.3668 9.73504 12.3398C9.663 12.3127 9.58626 12.3 9.50921 12.3022C9.43216 12.3044 9.3563 12.3216 9.28598 12.3527C9.21565 12.3838 9.15223 12.4283 9.09933 12.4836C8.87436 12.715 8.88776 13.0801 9.12566 13.3011C9.35877 13.5183 9.72926 13.5093 9.95327 13.2784ZM9.19889 16.268C9.32998 16.1296 9.4004 15.9458 9.39484 15.7565C9.38928 15.5672 9.3082 15.3877 9.16922 15.257C9.02854 15.1327 8.84424 15.0675 8.65555 15.0752C8.46687 15.083 8.2887 15.1631 8.15899 15.2985C8.02928 15.4339 7.95828 15.6139 7.96109 15.8002C7.96391 15.9865 8.04032 16.1644 8.17407 16.2959C8.31404 16.4256 8.50032 16.4955 8.6923 16.4903C8.88428 16.4851 9.06638 16.4052 9.19889 16.268ZM9.43105 19.4135C9.59866 19.2379 9.68874 19.0038 9.68147 18.7627C9.6742 18.5215 9.57018 18.2931 9.39227 18.1276C9.21427 17.9628 8.97723 17.8744 8.73321 17.8818C8.48919 17.8893 8.25813 17.9919 8.09078 18.1673C7.92411 18.3429 7.83476 18.5765 7.8423 18.817C7.84983 19.0575 7.95364 19.2852 8.13099 19.4503C8.50243 19.7965 9.08353 19.7781 9.43105 19.4135ZM10.5425 22.3309C10.7305 22.1338 10.8315 21.8712 10.8235 21.6006C10.8156 21.3301 10.6992 21.0738 10.4999 20.8878C10.4012 20.7959 10.2851 20.7241 10.1583 20.6765C10.0314 20.629 9.89625 20.6066 9.76059 20.6108C9.62494 20.6149 9.49145 20.6454 9.36779 20.7006C9.24413 20.7557 9.13272 20.8344 9.03998 20.9322C8.94636 21.0293 8.8731 21.1438 8.8244 21.2689C8.7757 21.3941 8.7525 21.5275 8.75615 21.6615C8.7598 21.7955 8.79021 21.9275 8.84565 22.0499C8.90109 22.1723 8.98046 22.2827 9.07923 22.3748C9.27983 22.5591 9.54604 22.6578 9.82002 22.6496C10.094 22.6414 10.3536 22.5269 10.5425 22.3309ZM22.6528 25.8744C22.7088 25.9267 22.7747 25.9675 22.8467 25.9945C22.9188 26.0216 22.9955 26.0343 23.0726 26.032C23.1496 26.0296 23.2254 26.0123 23.2957 25.981C23.3659 25.9497 23.4292 25.9049 23.4818 25.8494C23.5347 25.7943 23.576 25.7294 23.6033 25.6585C23.6306 25.5876 23.6435 25.512 23.6411 25.4362C23.6388 25.3604 23.6212 25.2858 23.5896 25.2166C23.5579 25.1475 23.5126 25.0852 23.4565 25.0334C23.4006 24.9812 23.3349 24.9403 23.263 24.9132C23.1912 24.8861 23.1146 24.8733 23.0377 24.8755C22.9608 24.8777 22.8851 24.8949 22.8149 24.926C22.7447 24.9572 22.6815 25.0017 22.6288 25.057C22.5222 25.1686 22.4648 25.3174 22.4693 25.4706C22.4738 25.6239 22.5398 25.7691 22.6528 25.8744ZM19.6807 26.9884C19.9727 27.2599 20.4303 27.242 20.7046 26.9568C20.7699 26.8888 20.821 26.8088 20.8549 26.7212C20.8888 26.6337 20.9048 26.5405 20.902 26.4468C20.8993 26.3532 20.8778 26.261 20.8388 26.1756C20.7998 26.0902 20.7441 26.0132 20.6749 25.9491C20.5345 25.8192 20.3476 25.7496 20.1553 25.7554C19.9629 25.7612 19.7807 25.8421 19.6487 25.9802C19.5181 26.1184 19.4481 26.302 19.4541 26.4908C19.4602 26.6797 19.5416 26.8586 19.6807 26.9884ZM16.4909 27.2156C16.8643 27.5626 17.4425 27.5456 17.7905 27.1811C17.8736 27.0947 17.9387 26.9929 17.9819 26.8816C18.025 26.7703 18.0455 26.6517 18.0422 26.5326C18.0388 26.4135 18.0116 26.2962 17.9622 26.1875C17.9127 26.0787 17.842 25.9807 17.7541 25.899C17.5762 25.734 17.3393 25.6451 17.0951 25.6518C16.851 25.6585 16.6195 25.7603 16.4512 25.9349C16.3684 26.0215 16.3037 26.1233 16.2609 26.2346C16.2181 26.3459 16.198 26.4644 16.2017 26.5834C16.2054 26.7023 16.2328 26.8194 16.2824 26.9279C16.3321 27.0364 16.4029 27.1341 16.4909 27.2156ZM13.481 26.4581C13.5796 26.5501 13.6956 26.622 13.8224 26.6696C13.9492 26.7173 14.0843 26.7398 14.22 26.7359C14.3556 26.7319 14.4891 26.7016 14.6128 26.6466C14.7366 26.5917 14.8481 26.5132 14.941 26.4156C15.034 26.318 15.1066 26.2033 15.1547 26.0781C15.2027 25.9528 15.2253 25.8194 15.2211 25.6856C15.217 25.5517 15.1861 25.4199 15.1303 25.2978C15.0745 25.1757 14.9949 25.0657 14.896 24.9739C14.7971 24.8822 14.6808 24.8105 14.5538 24.7631C14.4269 24.7157 14.2917 24.6934 14.156 24.6975C14.0203 24.7017 13.8867 24.7321 13.763 24.7871C13.6392 24.8422 13.5276 24.9207 13.4346 25.0183C13.3417 25.1158 13.2691 25.2304 13.2211 25.3555C13.1731 25.4807 13.1506 25.614 13.155 25.7477C13.1593 25.8815 13.1903 26.0131 13.2463 26.135C13.3022 26.2569 13.382 26.3667 13.481 26.4581Z" fill="white"/>
<path d="M21.3144 10.3266C21.2801 10.4413 21.2231 10.5482 21.1468 10.6412C21.0704 10.7342 20.9762 10.8114 20.8696 10.8684C20.763 10.9254 20.646 10.961 20.5253 10.9733C20.4047 10.9856 20.2828 10.9743 20.1666 10.94C20.0496 10.9066 19.9404 10.8508 19.8454 10.7756C19.7504 10.7004 19.6715 10.6074 19.6131 10.5019C19.5548 10.3964 19.5182 10.2806 19.5055 10.1611C19.4928 10.0416 19.5042 9.92082 19.539 9.8057C19.6091 9.57344 19.7697 9.37813 19.9857 9.26274C20.0927 9.20561 20.21 9.16981 20.3309 9.1574C20.4519 9.14498 20.5741 9.1562 20.6907 9.1904C20.8073 9.2246 20.9159 9.28111 21.0103 9.35672C21.1048 9.43233 21.1832 9.52554 21.2411 9.63105C21.299 9.73655 21.3353 9.85227 21.3479 9.97161C21.3605 10.0909 21.3491 10.2116 21.3144 10.3266ZM12.4385 12.4832C12.3217 12.4511 12.1969 12.4654 12.0906 12.5229C11.9844 12.5805 11.9051 12.6767 11.8699 12.7911C11.8406 12.9043 11.8571 13.0243 11.9158 13.1258C11.9745 13.2273 12.0708 13.3023 12.1845 13.3351C12.2982 13.3679 12.4203 13.356 12.5252 13.3017C12.6301 13.2474 12.7095 13.1551 12.7468 13.0442C12.8224 12.8067 12.6788 12.5569 12.4385 12.4832ZM14.0444 10.7407C13.9734 10.72 13.8989 10.7134 13.8252 10.7213C13.7516 10.7291 13.6802 10.7513 13.6153 10.7864C13.5503 10.8216 13.493 10.8691 13.4468 10.9261C13.4005 10.9832 13.3661 11.0487 13.3456 11.119C13.3244 11.1891 13.3175 11.2627 13.3252 11.3354C13.333 11.4082 13.3552 11.4788 13.3907 11.543C13.4262 11.6073 13.4743 11.664 13.5321 11.7099C13.5899 11.7557 13.6563 11.7899 13.7276 11.8103C13.8713 11.8513 14.0257 11.8346 14.157 11.7639C14.2884 11.6931 14.3861 11.574 14.4288 11.4325C14.4701 11.2905 14.4528 11.1382 14.3809 11.0086C14.3089 10.8791 14.188 10.7828 14.0444 10.7407ZM16.1022 9.51245C15.9196 9.46044 15.7236 9.48148 15.5566 9.57101C15.3896 9.66055 15.2651 9.81136 15.21 9.99081C15.1574 10.1712 15.1792 10.3647 15.2708 10.5292C15.3624 10.6937 15.5162 10.8157 15.6987 10.8687C15.789 10.8953 15.8837 10.904 15.9774 10.8943C16.0711 10.8846 16.1619 10.8567 16.2446 10.8121C16.3272 10.7676 16.4002 10.7074 16.4591 10.6349C16.5181 10.5624 16.5619 10.4791 16.5881 10.3898C16.6396 10.21 16.6176 10.0173 16.5268 9.85326C16.4359 9.68921 16.2835 9.56684 16.1022 9.51245ZM18.3812 9.00954C18.2795 8.9795 18.1728 8.96962 18.0672 8.98046C17.9617 8.9913 17.8593 9.02264 17.7661 9.07268C17.6729 9.12273 17.5906 9.19048 17.5241 9.27204C17.4575 9.35359 17.408 9.44734 17.3783 9.54787C17.3481 9.64805 17.3382 9.75313 17.3493 9.85709C17.3604 9.96104 17.3921 10.0618 17.4428 10.1536C17.4935 10.2454 17.562 10.3264 17.6445 10.392C17.727 10.4576 17.8218 10.5064 17.9235 10.5358C18.1285 10.5948 18.3488 10.5715 18.5364 10.4708C18.7239 10.3701 18.8634 10.2002 18.9244 9.99837C18.9551 9.89826 18.9653 9.79315 18.9545 9.68913C18.9437 9.5851 18.9122 9.48421 18.8617 9.39227C18.8111 9.30034 18.7427 9.21919 18.6602 9.15349C18.5777 9.0878 18.4829 9.03888 18.3812 9.00954ZM11.4233 14.6403C11.3805 14.6278 11.3357 14.6237 11.2914 14.6284C11.2471 14.633 11.2042 14.6462 11.1651 14.6673C11.126 14.6884 11.0915 14.7169 11.0636 14.7511C11.0357 14.7854 11.0149 14.8248 11.0025 14.867C10.9894 14.9095 10.985 14.9541 10.9894 14.9983C10.9939 15.0425 11.0071 15.0854 11.0283 15.1246C11.0496 15.1638 11.0785 15.1984 11.1133 15.2266C11.1481 15.2547 11.1882 15.2758 11.2313 15.2887C11.4142 15.3406 11.6028 15.2367 11.6559 15.0582C11.6686 15.0157 11.6726 14.9712 11.6677 14.9271C11.6629 14.8831 11.6493 14.8404 11.6276 14.8016C11.606 14.7627 11.5768 14.7285 11.5418 14.7008C11.5067 14.6731 11.4664 14.6526 11.4233 14.6403ZM25.2505 16.668C25.2333 16.7249 25.2277 16.7846 25.234 16.8436C25.2404 16.9026 25.2585 16.9598 25.2874 17.0118C25.3163 17.0639 25.3554 17.1097 25.4024 17.1468C25.4494 17.1838 25.5033 17.2113 25.5612 17.2276C25.6774 17.2614 25.8026 17.2482 25.909 17.1909C26.0154 17.1337 26.0944 17.037 26.1286 16.9223C26.1628 16.8076 26.1494 16.6842 26.0914 16.5792C26.0334 16.4742 25.9354 16.3963 25.8192 16.3625C25.7027 16.329 25.5775 16.3423 25.4709 16.3995C25.3644 16.4568 25.2851 16.5533 25.2505 16.668ZM24.7221 14.4132C24.7006 14.4835 24.6936 14.5574 24.7013 14.6304C24.709 14.7035 24.7313 14.7743 24.7669 14.8388C24.8025 14.9033 24.8507 14.9602 24.9087 15.0062C24.9668 15.0522 25.0335 15.0864 25.105 15.1069C25.4065 15.1947 25.7177 15.0247 25.8058 14.7291C25.8938 14.4335 25.7239 14.1251 25.4247 14.0401C25.3538 14.019 25.2793 14.012 25.2055 14.0193C25.1318 14.0267 25.0603 14.0483 24.995 14.0829C24.9297 14.1176 24.872 14.1646 24.8252 14.2213C24.7784 14.2779 24.7433 14.3431 24.7221 14.4132ZM23.4775 12.385C23.4511 12.4741 23.4426 12.5674 23.4527 12.6597C23.4628 12.752 23.4913 12.8414 23.5364 12.9229C23.5816 13.0043 23.6425 13.0762 23.7158 13.1344C23.7891 13.1926 23.8733 13.236 23.9636 13.2621C24.0539 13.2882 24.1485 13.2965 24.2421 13.2866C24.3356 13.2766 24.4263 13.2486 24.5088 13.204C24.5914 13.1595 24.6643 13.0994 24.7233 13.0271C24.7823 12.9547 24.8263 12.8717 24.8527 12.7826C24.8795 12.6937 24.8882 12.6004 24.8782 12.5082C24.8682 12.4159 24.8397 12.3265 24.7945 12.2452C24.7493 12.1639 24.6882 12.0922 24.6147 12.0343C24.5412 11.9765 24.4568 11.9335 24.3664 11.908C24.1844 11.8562 23.9891 11.8772 23.8227 11.9665C23.6563 12.0557 23.5323 12.2061 23.4775 12.385ZM21.7261 10.8096C21.6662 11.0122 21.6904 11.2298 21.7932 11.4148C21.896 11.5998 22.0691 11.7368 22.2744 11.7959C22.4797 11.8549 22.7003 11.8311 22.8878 11.7297C23.0753 11.6282 23.2142 11.4575 23.2741 11.255C23.3043 11.1549 23.3142 11.0499 23.3032 10.9461C23.2922 10.8423 23.2605 10.7416 23.2099 10.6499C23.1593 10.5582 23.0909 10.4772 23.0085 10.4117C22.9261 10.3461 22.8314 10.2973 22.7298 10.268C22.5239 10.2086 22.3025 10.2323 22.1143 10.3339C21.9261 10.4355 21.7865 10.6066 21.7261 10.8096ZM25.0653 18.9441C25.0406 19.0295 25.0508 19.1211 25.0936 19.1992C25.1364 19.2773 25.2086 19.3357 25.2945 19.3621C25.3376 19.3748 25.3828 19.379 25.4275 19.3744C25.4722 19.3698 25.5155 19.3564 25.555 19.3351C25.5944 19.3138 25.6291 19.2849 25.6571 19.2502C25.6852 19.2155 25.7059 19.1757 25.7182 19.133C25.7311 19.0907 25.7355 19.0462 25.7309 19.0021C25.7263 18.9581 25.713 18.9153 25.6916 18.8764C25.6701 18.8375 25.6411 18.8032 25.6062 18.7754C25.5712 18.7476 25.531 18.727 25.4879 18.7146C25.401 18.6906 25.3081 18.7012 25.229 18.7441C25.1499 18.787 25.0911 18.8589 25.0653 18.9441ZM17.1845 24.1971C17.2192 24.0817 17.2304 23.9606 17.2176 23.8408C17.2047 23.7211 17.168 23.605 17.1096 23.4992C17.0512 23.3935 16.9721 23.3002 16.8771 23.2247C16.782 23.1491 16.6727 23.0929 16.5555 23.0591C16.4388 23.0252 16.3165 23.0144 16.1955 23.0272C16.0746 23.04 15.9574 23.0762 15.8507 23.1338C15.7439 23.1913 15.6497 23.2691 15.5735 23.3625C15.4972 23.456 15.4404 23.5635 15.4062 23.6786C15.3716 23.7941 15.3604 23.9151 15.3733 24.0347C15.3862 24.1544 15.4229 24.2704 15.4814 24.3761C15.5398 24.4817 15.6188 24.5749 15.7138 24.6504C15.8089 24.7258 15.9181 24.782 16.0352 24.8158C16.5263 24.956 17.0447 24.6774 17.1845 24.1971ZM11.4706 17.332C11.5051 17.2173 11.492 17.0939 11.4342 16.9887C11.3764 16.8836 11.2786 16.8055 11.1624 16.7715C11.0456 16.7388 10.9205 16.7527 10.814 16.8101C10.7075 16.8675 10.628 16.9638 10.5928 17.0784C10.576 17.1351 10.5708 17.1946 10.5773 17.2533C10.5839 17.3121 10.6022 17.369 10.6311 17.4207C10.66 17.4725 10.699 17.5181 10.7458 17.555C10.7926 17.5919 10.8463 17.6193 10.9039 17.6356C10.9613 17.6527 11.0216 17.6584 11.0813 17.6523C11.1409 17.6463 11.1988 17.6286 11.2515 17.6004C11.3042 17.5722 11.3507 17.5339 11.3883 17.4878C11.4259 17.4418 11.4539 17.3888 11.4706 17.332ZM12 19.5854C12.0211 19.5157 12.028 19.4426 12.0202 19.3703C12.0124 19.2979 11.9901 19.2279 11.9547 19.1641C11.9193 19.1003 11.8713 19.0441 11.8137 18.9987C11.7561 18.9534 11.6899 18.9197 11.619 18.8998C11.5481 18.8779 11.4735 18.8703 11.3996 18.8773C11.3257 18.8844 11.2539 18.9061 11.1887 18.941C11.1234 18.9759 11.0658 19.0234 11.0195 19.0806C10.9731 19.1379 10.9389 19.2037 10.9187 19.2742C10.8769 19.4157 10.8938 19.5677 10.9656 19.697C11.0374 19.8262 11.1583 19.9219 11.3017 19.9632C11.4451 20.0045 11.5992 19.9879 11.7302 19.917C11.8611 19.8462 11.9582 19.7269 12 19.5854ZM13.2465 21.6165C13.299 21.4355 13.277 21.2414 13.1855 21.0763C13.0939 20.9112 12.9401 20.7883 12.7573 20.7343C12.5747 20.6825 12.3787 20.7041 12.2122 20.7944C12.0457 20.8848 11.9222 21.0365 11.8689 21.2165C11.842 21.3055 11.8333 21.3989 11.8432 21.4912C11.853 21.5836 11.8813 21.6731 11.9264 21.7547C11.9714 21.8362 12.0324 21.9081 12.1058 21.9664C12.1791 22.0246 12.2634 22.0679 12.3538 22.0939C12.4442 22.1205 12.539 22.1294 12.6329 22.1198C12.7267 22.1102 12.8177 22.0824 12.9007 22.0381C12.9836 21.9937 13.0568 21.9336 13.1162 21.8613C13.1755 21.7889 13.2198 21.7057 13.2465 21.6165ZM14.9979 23.1941C15.0574 22.9912 15.0328 22.7733 14.9298 22.5881C14.8267 22.403 14.6534 22.2657 14.4479 22.2063C14.3464 22.1767 14.2399 22.1673 14.1346 22.1786C14.0293 22.1899 13.9273 22.2216 13.8346 22.272C13.7418 22.3225 13.6601 22.3905 13.5941 22.4723C13.5282 22.554 13.4794 22.6479 13.4504 22.7484C13.4205 22.8483 13.411 22.9531 13.4222 23.0567C13.4335 23.1604 13.4653 23.2608 13.516 23.3522C13.5666 23.4437 13.635 23.5244 13.7173 23.5897C13.7997 23.6551 13.8942 23.7037 13.9956 23.733C14.2009 23.7917 14.4215 23.7681 14.6092 23.6672C14.797 23.5663 14.9367 23.3962 14.9979 23.1941ZM24.2812 21.5154C24.3979 21.5496 24.5236 21.5366 24.6307 21.4794C24.7378 21.4222 24.8175 21.3255 24.8522 21.2103C24.8856 21.0954 24.8719 20.9721 24.8139 20.8671C24.756 20.762 24.6585 20.6837 24.5426 20.6489C24.4261 20.616 24.3012 20.6297 24.1949 20.6869C24.0885 20.7442 24.0093 20.8404 23.9744 20.9549C23.9403 21.0693 23.9534 21.1925 24.0108 21.2974C24.0683 21.4024 24.1655 21.4808 24.2812 21.5154ZM22.6781 23.2603C22.821 23.3018 22.9748 23.2858 23.1057 23.2155C23.2365 23.1453 23.3338 23.0267 23.376 22.8858C23.3977 22.8157 23.4051 22.7421 23.3978 22.6692C23.3905 22.5963 23.3686 22.5255 23.3334 22.461C23.2982 22.3965 23.2503 22.3396 23.1927 22.2934C23.135 22.2472 23.0686 22.2128 22.9974 22.1921C22.8533 22.1504 22.6984 22.1666 22.5664 22.2372C22.4344 22.3078 22.336 22.4271 22.2928 22.5689C22.2525 22.711 22.2703 22.863 22.3423 22.9922C22.4144 23.1215 22.535 23.2177 22.6781 23.2603ZM20.6204 24.489C20.7109 24.5156 20.8058 24.5243 20.8998 24.5145C20.9937 24.5047 21.0847 24.4767 21.1676 24.4321C21.2505 24.3874 21.3236 24.327 21.3828 24.2544C21.4419 24.1817 21.4858 24.0982 21.5121 24.0087C21.5385 23.9197 21.5469 23.8265 21.5367 23.7343C21.5266 23.6421 21.4981 23.5528 21.4529 23.4715C21.4077 23.3902 21.3468 23.3185 21.2735 23.2604C21.2002 23.2024 21.116 23.1592 21.0258 23.1332C20.9356 23.107 20.841 23.0985 20.7474 23.1083C20.6539 23.1181 20.5632 23.146 20.4805 23.1904C20.3979 23.2347 20.325 23.2947 20.2658 23.3669C20.2067 23.4391 20.1626 23.5221 20.1359 23.6111C20.1093 23.7001 20.1007 23.7935 20.1107 23.8858C20.1206 23.978 20.1489 24.0675 20.1939 24.149C20.2388 24.2305 20.2997 24.3025 20.3728 24.3608C20.446 24.4192 20.5301 24.4627 20.6204 24.489ZM18.3433 24.99C18.4446 25.0205 18.5509 25.0308 18.6562 25.0203C18.7615 25.0099 18.8636 24.9789 18.9567 24.9291C19.0497 24.8794 19.1318 24.8119 19.1982 24.7306C19.2646 24.6493 19.3139 24.5557 19.3433 24.4555C19.3731 24.3551 19.3826 24.25 19.3713 24.1461C19.3599 24.0422 19.3279 23.9415 19.2771 23.8497C19.1745 23.6645 19.0015 23.527 18.7962 23.4676C18.5908 23.4081 18.37 23.4316 18.1822 23.5328C17.9944 23.6341 17.855 23.8047 17.7948 24.0073C17.736 24.2094 17.7607 24.4262 17.8635 24.6104C17.9663 24.7945 18.1388 24.931 18.3433 24.99Z" fill="white"/>
<path d="M16.4569 12.0227C16.6435 12.366 16.5167 12.7967 16.1673 12.9828C15.9987 13.072 15.8012 13.0916 15.618 13.0372C15.4348 12.9829 15.281 12.859 15.1903 12.6928C14.9988 12.35 15.131 11.9184 15.4794 11.7333C15.5628 11.6886 15.6543 11.6607 15.7487 11.651C15.843 11.6414 15.9384 11.6503 16.0292 11.6772C16.1201 11.7041 16.2047 11.7485 16.278 11.8078C16.3514 11.8671 16.4122 11.9402 16.4569 12.0227ZM12.9008 17.577C12.8027 17.6308 12.7299 17.7206 12.6982 17.8268C12.6665 17.9331 12.6784 18.0474 12.7314 18.1451C12.7575 18.1935 12.7932 18.2362 12.8364 18.2707C12.8795 18.3053 12.9292 18.331 12.9825 18.3463C13.0359 18.3616 13.0918 18.3662 13.147 18.3599C13.2022 18.3536 13.2555 18.3364 13.3039 18.3094C13.3534 18.2843 13.3973 18.2495 13.4329 18.2073C13.4686 18.1651 13.4952 18.1162 13.5113 18.0636C13.5274 18.011 13.5326 17.9557 13.5265 17.9011C13.5205 17.8464 13.5034 17.7936 13.4762 17.7456C13.4222 17.6484 13.3314 17.5761 13.2237 17.5446C13.1159 17.513 12.9999 17.5246 12.9008 17.577ZM12.829 15.8695C12.7152 15.9311 12.6305 16.0345 12.5935 16.1573C12.5565 16.2801 12.5701 16.4124 12.6314 16.5254C12.7639 16.7653 13.0617 16.8517 13.3024 16.7251C13.5403 16.5967 13.6313 16.2968 13.5025 16.064C13.4716 16.0073 13.4295 15.9572 13.3788 15.9167C13.328 15.8762 13.2697 15.846 13.207 15.8279C13.1444 15.8098 13.0787 15.8041 13.0138 15.8113C12.9489 15.8184 12.8861 15.8382 12.829 15.8695ZM13.278 14.2261C13.1468 14.2966 13.0489 14.4152 13.0055 14.5563C12.962 14.6974 12.9766 14.8496 13.0459 14.9803C13.1967 15.249 13.5389 15.3528 13.8117 15.206C13.8773 15.1714 13.9353 15.1245 13.9824 15.0678C14.0295 15.0111 14.0648 14.9457 14.0863 14.8755C14.1078 14.8054 14.115 14.7317 14.1076 14.6587C14.1001 14.5858 14.0782 14.515 14.0429 14.4504C13.9708 14.3215 13.8502 14.2257 13.7071 14.1837C13.564 14.1417 13.4099 14.157 13.278 14.2261ZM14.1942 12.8047C14.12 12.8435 14.0544 12.8965 14.0011 12.9605C13.9479 13.0245 13.908 13.0984 13.8839 13.1777C13.8598 13.2571 13.852 13.3403 13.8608 13.4227C13.8696 13.5051 13.8949 13.5849 13.9352 13.6576C14.1028 13.9593 14.4828 14.0741 14.7911 13.9093C14.8651 13.871 14.9306 13.8186 14.9838 13.7551C15.0371 13.6917 15.0771 13.6184 15.1014 13.5396C15.1258 13.4608 15.134 13.378 15.1257 13.2961C15.1174 13.2141 15.0927 13.1346 15.0529 13.0621C15.0139 12.9894 14.9607 12.925 14.8963 12.8726C14.8319 12.8202 14.7577 12.781 14.6779 12.7571C14.5981 12.7331 14.5142 12.725 14.4312 12.7332C14.3482 12.7414 14.2677 12.7657 14.1942 12.8047ZM13.493 19.1939C13.4518 19.2157 13.4155 19.2453 13.386 19.2811C13.3566 19.3168 13.3346 19.3579 13.3213 19.4021C13.308 19.4462 13.3036 19.4925 13.3085 19.5383C13.3134 19.5841 13.3275 19.6285 13.3498 19.669C13.3953 19.7498 13.4711 19.8098 13.5609 19.8363C13.6507 19.8628 13.7474 19.8536 13.8304 19.8106C13.9123 19.7652 13.9728 19.6898 13.999 19.6009C14.0252 19.5119 14.0151 19.4163 13.9707 19.3346C13.9256 19.2541 13.8503 19.1942 13.761 19.1679C13.6716 19.1415 13.5754 19.1509 13.493 19.1939ZM21.6753 13.379C21.7299 13.4762 21.8209 13.5486 21.9287 13.5807C22.0366 13.6129 22.1529 13.6024 22.253 13.5513C22.3517 13.4973 22.4249 13.4074 22.457 13.3007C22.4892 13.1941 22.4776 13.0792 22.4249 12.9809C22.3986 12.9325 22.3629 12.8897 22.3198 12.855C22.2767 12.8203 22.2271 12.7943 22.1738 12.7787C22.1205 12.763 22.0645 12.7579 22.0092 12.7637C21.9539 12.7694 21.9002 12.786 21.8514 12.8123C21.8021 12.8381 21.7585 12.8732 21.7229 12.9156C21.6874 12.958 21.6607 13.007 21.6443 13.0596C21.6279 13.1122 21.6223 13.1675 21.6276 13.2223C21.6329 13.2771 21.6491 13.3303 21.6753 13.379ZM20.2378 12.4765C20.3676 12.7136 20.673 12.8 20.9056 12.6711C21.1511 12.5426 21.2387 12.248 21.1076 12.0119C21.0459 11.8986 20.9412 11.8139 20.8165 11.7764C20.6918 11.7389 20.5571 11.7516 20.4418 11.8116C20.3262 11.8739 20.24 11.9785 20.2019 12.1029C20.1637 12.2273 20.1767 12.3615 20.2378 12.4765ZM18.5769 12.0374C18.6115 12.1015 18.6587 12.1583 18.7158 12.2043C18.7728 12.2504 18.8385 12.2848 18.9092 12.3055C18.9798 12.3263 19.0539 12.3331 19.1272 12.3254C19.2004 12.3177 19.2714 12.2957 19.336 12.2607C19.4016 12.2264 19.4597 12.1796 19.5069 12.1231C19.5541 12.0665 19.5895 12.0014 19.611 11.9313C19.6326 11.8612 19.6399 11.7876 19.6326 11.7147C19.6252 11.6418 19.6033 11.5711 19.5682 11.5066C19.5333 11.4421 19.4857 11.3851 19.4283 11.339C19.3709 11.2928 19.3047 11.2584 19.2337 11.2377C19.1626 11.217 19.0881 11.2104 19.0145 11.2184C18.9408 11.2264 18.8695 11.2488 18.8047 11.2842C18.7395 11.3188 18.6819 11.3657 18.6352 11.4224C18.5884 11.479 18.5535 11.5441 18.5323 11.6141C18.5111 11.6841 18.5042 11.7575 18.5118 11.8301C18.5195 11.9028 18.5416 11.9732 18.5769 12.0374ZM16.8427 12.1049C16.8821 12.1777 16.9356 12.2421 17.0003 12.2945C17.065 12.3469 17.1395 12.3861 17.2195 12.4101C17.2996 12.434 17.3837 12.4422 17.4669 12.4341C17.5502 12.4259 17.631 12.4017 17.7047 12.3627C17.8524 12.2823 17.962 12.1478 18.0098 11.9883C18.0576 11.8288 18.0399 11.6571 17.9604 11.5104C17.8776 11.3694 17.7425 11.2657 17.5836 11.2213C17.4247 11.1769 17.2545 11.1954 17.1091 11.2727C16.9638 11.35 16.8547 11.4802 16.8049 11.6355C16.7552 11.7909 16.7687 11.9592 16.8427 12.1049ZM22.7552 14.6573C22.8461 14.8268 23.0615 14.8882 23.2281 14.7975C23.2691 14.7765 23.3054 14.7476 23.3349 14.7126C23.3644 14.6776 23.3866 14.637 23.4 14.5934C23.4134 14.5498 23.4179 14.504 23.4131 14.4587C23.4083 14.4134 23.3944 14.3695 23.3722 14.3295C23.328 14.2476 23.2529 14.1862 23.1632 14.1584C23.0734 14.1307 22.9762 14.1389 22.8925 14.1813C22.7284 14.2752 22.6599 14.4915 22.7552 14.6573ZM21.5346 21.3005C21.4901 21.2175 21.4294 21.144 21.3558 21.0844C21.2823 21.0248 21.1975 20.9803 21.1063 20.9534C21.0151 20.9265 20.9195 20.9178 20.8248 20.9277C20.7302 20.9377 20.6386 20.9662 20.5552 21.0115C20.4719 21.0554 20.3982 21.1152 20.3385 21.1874C20.2787 21.2596 20.2342 21.3428 20.2073 21.4322C20.1804 21.5215 20.1719 21.6153 20.182 21.7079C20.1922 21.8006 20.2209 21.8904 20.2666 21.972C20.4561 22.3158 20.8936 22.4414 21.244 22.26C21.592 22.0702 21.7217 21.6372 21.5346 21.3005ZM15.0458 20.612C14.9917 20.5156 14.9015 20.444 14.7946 20.4126C14.6876 20.3811 14.5724 20.3924 14.4737 20.4439C14.4249 20.4697 14.3816 20.5048 14.3465 20.5471C14.3114 20.5894 14.2851 20.6382 14.2691 20.6906C14.2532 20.743 14.2479 20.7979 14.2535 20.8524C14.2591 20.9068 14.2756 20.9596 14.3019 21.0077C14.3277 21.0563 14.3631 21.0994 14.4061 21.1342C14.4491 21.1691 14.4987 21.1951 14.552 21.2107C14.6054 21.2263 14.6614 21.2312 14.7167 21.225C14.772 21.2189 14.8254 21.2018 14.8739 21.1749C14.9227 21.1491 14.9659 21.1141 15.001 21.0718C15.036 21.0296 15.0623 20.9809 15.0782 20.9286C15.0942 20.8763 15.0996 20.8214 15.094 20.7671C15.0884 20.7128 15.072 20.6601 15.0458 20.612ZM16.4851 21.5149C16.4226 21.4019 16.3172 21.3179 16.192 21.2813C16.0669 21.2448 15.9322 21.2586 15.8174 21.3198C15.7598 21.3496 15.7089 21.3904 15.6676 21.4399C15.6263 21.4894 15.5954 21.5465 15.5768 21.608C15.5582 21.6694 15.5522 21.7339 15.5593 21.7976C15.5663 21.8613 15.5862 21.923 15.6178 21.9791C15.7422 22.2166 16.0443 22.3073 16.2836 22.1798C16.3987 22.117 16.4842 22.0122 16.5219 21.8879C16.5596 21.7636 16.5464 21.6297 16.4851 21.5149ZM18.1499 21.954C18.0049 21.6844 17.6588 21.5885 17.3812 21.7283C17.2502 21.7994 17.1529 21.9185 17.1103 22.0598C17.0676 22.2011 17.0831 22.3532 17.1533 22.4834C17.3036 22.7559 17.6459 22.8565 17.9197 22.711C17.9856 22.6767 18.044 22.6298 18.0914 22.573C18.1388 22.5162 18.1743 22.4506 18.1957 22.3802C18.2171 22.3097 18.2241 22.2357 18.2163 22.1625C18.2084 22.0894 18.1858 22.0185 18.1499 21.954ZM19.8817 21.8856C19.8011 21.7394 19.6651 21.6307 19.5035 21.5831C19.3419 21.5355 19.1678 21.5529 19.0192 21.6315C18.709 21.7935 18.6013 22.1727 18.7698 22.481C18.8084 22.5537 18.8613 22.618 18.9255 22.6701C18.9897 22.7222 19.0639 22.7611 19.1436 22.7844C19.2233 22.8078 19.3069 22.8152 19.3895 22.8062C19.4722 22.7971 19.5521 22.7718 19.6247 22.7318C19.9358 22.5712 20.0464 22.1883 19.8817 21.8856ZM23.8164 16.4201C24.0246 16.302 24.104 16.047 23.9954 15.8473C23.969 15.7991 23.9332 15.7566 23.8901 15.722C23.847 15.6875 23.7974 15.6617 23.7442 15.6461C23.691 15.6305 23.6352 15.6254 23.58 15.6311C23.5248 15.6367 23.4712 15.6531 23.4224 15.6791C23.3728 15.7047 23.3288 15.7398 23.2931 15.7823C23.2574 15.8249 23.2307 15.874 23.2146 15.9269C23.1984 15.9798 23.1931 16.0354 23.1991 16.0903C23.205 16.1452 23.222 16.1984 23.2491 16.2468C23.3019 16.3431 23.3908 16.4153 23.4969 16.4477C23.6029 16.4801 23.7176 16.4702 23.8164 16.4201ZM23.8958 18.1248C24.1361 17.9959 24.2223 17.6998 24.0916 17.4646C24.0611 17.4084 24.0197 17.3586 23.9696 17.3182C23.9196 17.2779 23.862 17.2476 23.8 17.2293C23.7381 17.2109 23.6731 17.2048 23.6088 17.2114C23.5445 17.2179 23.4821 17.2369 23.4253 17.2672C23.3102 17.3298 23.2245 17.4343 23.1866 17.5584C23.1487 17.6825 23.1615 17.8163 23.2223 17.9312C23.3497 18.164 23.6589 18.2499 23.8958 18.1248ZM23.4435 19.7667C23.724 19.618 23.8216 19.2836 23.6785 19.0102C23.607 18.8803 23.4862 18.7835 23.3426 18.7411C23.199 18.6988 23.0443 18.7142 22.9122 18.784C22.7802 18.855 22.682 18.9744 22.6388 19.1164C22.5956 19.2584 22.6109 19.4115 22.6814 19.5424C22.7531 19.6711 22.8732 19.7667 23.0158 19.8087C23.1584 19.8507 23.3121 19.8356 23.4435 19.7667ZM22.5335 21.182C22.8418 21.0242 22.9557 20.6375 22.7887 20.3357C22.6192 20.0326 22.2363 19.915 21.9295 20.0821C21.8561 20.1212 21.7912 20.1742 21.7386 20.2381C21.686 20.3019 21.6466 20.3754 21.6228 20.4542C21.599 20.5331 21.5911 20.6158 21.5997 20.6976C21.6083 20.7795 21.6332 20.8588 21.6729 20.9312C21.7122 21.0039 21.7657 21.0682 21.8305 21.1203C21.8952 21.1724 21.9698 21.2113 22.0499 21.2346C22.13 21.258 22.2141 21.2654 22.2971 21.2563C22.3801 21.2473 22.4605 21.222 22.5335 21.182Z" fill="white"/>
<path d="M34.8492 18.8204C34.3597 18.8198 33.8905 18.6274 33.5448 18.2856C33.199 17.9438 33.005 17.4805 33.0054 16.9976C33.005 16.7585 33.0525 16.5216 33.1452 16.3006C33.2379 16.0796 33.3739 15.8789 33.5454 15.7099C33.717 15.5409 33.9207 15.4071 34.1448 15.316C34.369 15.2249 34.6092 15.1784 34.8516 15.1791C35.094 15.1787 35.3341 15.2255 35.5582 15.3168C35.7822 15.4081 35.9858 15.5422 36.1572 15.7114C36.3286 15.8805 36.4645 16.0813 36.557 16.3024C36.6495 16.5235 36.6969 16.7604 36.6964 16.9995C36.6961 17.4826 36.5014 17.9458 36.155 18.2873C35.8086 18.6288 35.3389 18.8205 34.8492 18.8204ZM27.6031 3.11619C27.6313 2.98721 27.6333 2.85402 27.6091 2.72427C27.5849 2.59452 27.5349 2.47077 27.462 2.36013C27.3892 2.2495 27.2948 2.15417 27.1845 2.07962C27.0742 2.00507 26.95 1.95277 26.8191 1.92572C26.6884 1.89766 26.5533 1.89536 26.4217 1.91898C26.2901 1.94259 26.1645 1.99164 26.0522 2.06331C25.9399 2.13497 25.843 2.22784 25.7672 2.33657C25.6914 2.4453 25.6381 2.56775 25.6105 2.69686C25.5541 2.95755 25.605 3.22965 25.752 3.45331C25.899 3.67696 26.13 3.83385 26.3943 3.88946C26.6585 3.94507 26.9343 3.89484 27.161 3.74982C27.3877 3.60481 27.5468 3.37688 27.6031 3.11619ZM31.2401 5.68508C31.2656 5.52727 31.2594 5.36602 31.2217 5.21058C31.184 5.05515 31.1156 4.90857 31.0204 4.77926C30.9252 4.64994 30.8051 4.54042 30.6669 4.45698C30.5288 4.37353 30.3753 4.3178 30.2152 4.29297C29.8955 4.25026 29.5715 4.33271 29.3125 4.52268C29.0536 4.71265 28.8804 4.99506 28.8298 5.30946C28.7793 5.62387 28.8555 5.9453 29.0421 6.20498C29.2287 6.46466 29.511 6.64196 29.8285 6.69894C30.1519 6.7487 30.4821 6.66991 30.7467 6.47985C31.0113 6.2898 31.1887 6.00399 31.2401 5.68508ZM35.9875 12.8747C35.9994 12.6552 35.9673 12.4356 35.8931 12.2284C35.8188 12.0212 35.7038 11.8305 35.5548 11.6672C35.4057 11.504 35.2254 11.3713 35.0242 11.2769C34.823 11.1825 34.605 11.1282 34.3825 11.1171C34.16 11.105 33.9372 11.1363 33.7271 11.2094C33.5169 11.2825 33.3234 11.3958 33.1577 11.5428C32.9921 11.6898 32.8574 11.8677 32.7616 12.0662C32.6658 12.2647 32.6107 12.4799 32.5995 12.6995C32.5857 12.9201 32.6164 13.1412 32.6898 13.3501C32.7632 13.5589 32.8778 13.7513 33.0269 13.9163C33.1761 14.0812 33.3569 14.2153 33.5589 14.3109C33.7609 14.4065 33.9801 14.4617 34.2039 14.4733C34.4276 14.4848 34.6515 14.4526 34.8625 14.3783C35.0735 14.3041 35.2676 14.1893 35.4334 14.0407C35.5992 13.8921 35.7336 13.7125 35.8287 13.5124C35.9238 13.3122 35.9777 13.0955 35.9875 12.8747ZM19.1015 0.730056C19.1015 0.324417 18.7689 0 18.3591 0C18.1673 0.00680403 17.9857 0.0867489 17.8525 0.223006C17.7192 0.359263 17.6448 0.541203 17.6448 0.730528C17.6448 0.919852 17.7192 1.10179 17.8525 1.23805C17.9857 1.37431 18.1673 1.45425 18.3591 1.46106C18.7689 1.46106 19.1015 1.13475 19.1015 0.730056ZM26.3955 30.1098C26.2645 30.1373 26.1403 30.19 26.03 30.2648C25.9196 30.3396 25.8253 30.4351 25.7524 30.5459C25.6051 30.7697 25.554 31.042 25.6102 31.3029C25.6665 31.5638 25.8255 31.7921 26.0523 31.9373C26.2791 32.0826 26.5551 32.1331 26.8196 32.0776C27.0841 32.0221 27.3154 31.8652 27.4627 31.6415C27.6099 31.4177 27.6611 31.1455 27.6048 30.8845C27.5486 30.6236 27.3896 30.3954 27.1628 30.2501C26.936 30.1048 26.66 30.0544 26.3955 30.1098ZM29.8285 27.302C29.6672 27.3255 29.5122 27.3803 29.3725 27.4632C29.2327 27.5461 29.1111 27.6556 29.0145 27.7852C28.9179 27.9147 28.8483 28.0619 28.8097 28.2182C28.7711 28.3745 28.7643 28.5368 28.7896 28.6957C28.815 28.8546 28.872 29.007 28.9575 29.144C29.0429 29.281 29.1549 29.4 29.2872 29.494C29.4195 29.5881 29.5694 29.6553 29.7282 29.6919C29.887 29.7284 30.0515 29.7336 30.2124 29.707C30.5331 29.6541 30.8197 29.4783 31.0098 29.218C31.1999 28.9577 31.2782 28.6339 31.2276 28.317C31.177 28 31.0017 27.7156 30.7397 27.5256C30.4777 27.3355 30.1502 27.2552 29.8285 27.302ZM32.4798 23.6253C32.0742 23.6674 31.7021 23.8667 31.4455 24.1794C31.1889 24.4921 31.0686 24.8925 31.1113 25.2927C31.1539 25.6928 31.356 26.0599 31.673 26.3131C31.9899 26.5663 32.3959 26.6849 32.8015 26.6428C33.0025 26.6223 33.1974 26.5629 33.3751 26.468C33.5528 26.3731 33.7098 26.2444 33.8369 26.0895C33.9641 25.9346 34.0591 25.7564 34.1163 25.5652C34.1735 25.3741 34.1919 25.1736 34.1705 24.9754C34.1276 24.5752 33.9255 24.2082 33.6084 23.955C33.2914 23.7018 32.8854 23.5832 32.4798 23.6253ZM34.202 19.5401C33.7534 19.5642 33.3327 19.7629 33.0323 20.0926C32.7319 20.4222 32.5762 20.8559 32.5995 21.2986C32.6107 21.5182 32.6657 21.7335 32.7615 21.932C32.8573 22.1305 32.9919 22.3084 33.1576 22.4555C33.3233 22.6025 33.5168 22.7158 33.727 22.7888C33.9372 22.8619 34.16 22.8932 34.3825 22.8811C34.6049 22.8699 34.8229 22.8155 35.0241 22.7211C35.2252 22.6266 35.4054 22.494 35.5544 22.3307C35.7035 22.1674 35.8184 21.9768 35.8926 21.7696C35.9669 21.5624 35.9989 21.3429 35.987 21.1234C35.9626 20.6801 35.761 20.2645 35.4264 19.9676C35.0918 19.6708 34.6514 19.517 34.202 19.5401ZM18.3591 32.5385C18.1659 32.5433 17.9823 32.6224 17.8474 32.7589C17.7125 32.8955 17.637 33.0786 17.637 33.2692C17.637 33.4599 17.7125 33.643 17.8474 33.7795C17.9823 33.916 18.1659 33.9952 18.3591 34C18.5556 34 18.744 33.923 18.8829 33.786C19.0218 33.6489 19.0999 33.463 19.0999 33.2692C19.0999 33.0754 19.0218 32.8896 18.8829 32.7525C18.744 32.6155 18.5556 32.5385 18.3591 32.5385ZM1.86811 18.8204C2.35739 18.8194 2.82626 18.6269 3.17178 18.2851C3.51731 17.9434 3.71123 17.4803 3.71098 16.9976C3.71135 16.7588 3.66395 16.5222 3.57148 16.3014C3.479 16.0806 3.34328 15.88 3.17209 15.7111C3.00089 15.5421 2.79759 15.4082 2.57383 15.3169C2.35007 15.2256 2.11025 15.1788 1.86811 15.1791C1.62557 15.1788 1.38534 15.2257 1.16119 15.3171C0.937028 15.4084 0.733336 15.5425 0.561766 15.7117C0.390196 15.8808 0.254117 16.0816 0.161314 16.3027C0.0685122 16.5238 0.0208092 16.7607 0.0209353 17C0.0219486 17.4828 0.216947 17.9456 0.563195 18.2868C0.909443 18.628 1.3787 18.8199 1.86811 18.8204ZM10.3228 3.88875C10.5872 3.83333 10.8184 3.67657 10.9656 3.45296C11.1128 3.22935 11.164 2.9572 11.1078 2.69639C11.0801 2.5673 11.0269 2.44487 10.9511 2.33614C10.8753 2.2274 10.7786 2.1345 10.6663 2.06276C10.5541 1.99102 10.4285 1.94186 10.297 1.9181C10.1654 1.89434 10.0304 1.89645 9.89966 1.92431C9.76891 1.95172 9.64492 2.00426 9.53475 2.07895C9.42459 2.15363 9.33042 2.24899 9.25761 2.35958C9.1848 2.47017 9.13479 2.59382 9.11042 2.72348C9.08606 2.85314 9.08782 2.98626 9.1156 3.11525C9.14339 3.24424 9.19665 3.36656 9.27235 3.47524C9.34806 3.58392 9.44472 3.67683 9.55682 3.74865C9.66892 3.82048 9.79426 3.86982 9.92568 3.89386C10.0571 3.9179 10.1921 3.91616 10.3228 3.88875ZM6.89076 6.698C7.21432 6.64726 7.50423 6.4719 7.69683 6.21044C7.88943 5.94898 7.96897 5.6228 7.91798 5.30353C7.89264 5.14549 7.83596 4.99394 7.75117 4.85756C7.66638 4.72117 7.55514 4.60262 7.42384 4.50871C7.29254 4.41479 7.14375 4.34735 6.98599 4.31025C6.82823 4.27315 6.6646 4.26712 6.50448 4.2925C6.34448 4.31738 6.19104 4.37316 6.05292 4.45663C5.91481 4.5401 5.79474 4.64962 5.69959 4.77893C5.60444 4.90824 5.53608 5.0548 5.49842 5.21021C5.46076 5.36562 5.45455 5.52683 5.48013 5.68461C5.531 6.00353 5.70819 6.28945 5.97272 6.47949C6.23726 6.66953 6.56748 6.74813 6.89076 6.698ZM4.23751 10.3738C4.63588 10.3229 4.99829 10.1203 5.24734 9.80941C5.49638 9.49848 5.61232 9.1038 5.57039 8.70968C5.52846 8.31555 5.33198 7.95323 5.02292 7.70008C4.71386 7.44694 4.31672 7.32304 3.91632 7.35486C3.71522 7.37535 3.5202 7.43484 3.34246 7.52989C3.16472 7.62495 3.00776 7.7537 2.8806 7.90877C2.75344 8.06383 2.65859 8.24215 2.60148 8.43348C2.54437 8.62481 2.52613 8.82539 2.54782 9.02369C2.56878 9.22184 2.62913 9.41397 2.72542 9.5891C2.82171 9.76422 2.95205 9.9189 3.10898 10.0443C3.26591 10.1697 3.44636 10.2633 3.64 10.3199C3.83364 10.3764 4.03668 10.3947 4.23751 10.3738ZM2.51527 14.4585C2.96454 14.4349 3.38595 14.2364 3.6869 13.9065C3.98784 13.5765 4.14371 13.1422 4.12024 12.699C4.10892 12.4792 4.05369 12.2638 3.95772 12.0652C3.86175 11.8665 3.72694 11.6885 3.56103 11.5414C3.39512 11.3943 3.20138 11.2811 2.99094 11.2081C2.78051 11.1351 2.55752 11.1038 2.33481 11.1161C2.1124 11.1275 1.89443 11.182 1.69339 11.2765C1.49234 11.371 1.31216 11.5037 1.16314 11.667C1.01412 11.8303 0.899189 12.021 0.824922 12.2281C0.750655 12.4352 0.718508 12.6548 0.730319 12.8742C0.754192 13.3177 0.955625 13.7338 1.29034 14.0309C1.62505 14.328 2.06564 14.4818 2.51527 14.4585ZM9.1156 30.8833C9.08779 31.0124 9.08601 31.1456 9.11039 31.2754C9.13476 31.4051 9.1848 31.5289 9.25765 31.6396C9.3305 31.7502 9.42474 31.8457 9.53497 31.9204C9.64521 31.9952 9.76929 32.0478 9.90014 32.0752C10.031 32.1027 10.166 32.1044 10.2975 32.0804C10.4291 32.0563 10.5545 32.007 10.6667 31.9351C10.7789 31.8632 10.8756 31.7702 10.9514 31.6615C11.0272 31.5527 11.0805 31.4303 11.1083 31.3013C11.1642 31.0405 11.1129 30.7686 10.9657 30.5451C10.8186 30.3216 10.5875 30.1649 10.3233 30.1094C10.0591 30.0546 9.78378 30.1053 9.55745 30.2503C9.33111 30.3954 9.17224 30.623 9.1156 30.8833ZM5.48061 28.3135C5.45476 28.4713 5.46078 28.6327 5.49833 28.7882C5.53588 28.9437 5.60421 29.0904 5.69939 29.2198C5.79458 29.3492 5.91475 29.4588 6.05299 29.5423C6.19124 29.6257 6.34483 29.6814 6.50495 29.7061C6.74591 29.7439 6.99283 29.7104 7.21448 29.6098C7.43614 29.5092 7.62256 29.346 7.75019 29.1408C7.87782 28.9357 7.9409 28.6978 7.93148 28.4573C7.92205 28.2168 7.84053 27.9844 7.69723 27.7896C7.55393 27.5948 7.35528 27.4462 7.12642 27.3628C6.89755 27.2794 6.64875 27.2648 6.41147 27.3209C6.1742 27.377 5.95911 27.5012 5.79342 27.6779C5.62772 27.8546 5.51886 28.0758 5.48061 28.3135ZM2.54782 24.9763C2.5262 25.1745 2.54448 25.3749 2.60161 25.566C2.65874 25.7572 2.75359 25.9353 2.8807 26.0902C3.00782 26.2451 3.16471 26.3737 3.34235 26.4686C3.51999 26.5635 3.71489 26.6229 3.91585 26.6432C4.11673 26.6644 4.31989 26.6463 4.51366 26.5899C4.70744 26.5335 4.88803 26.44 5.04509 26.3146C5.20215 26.1892 5.33258 26.0345 5.42892 25.8593C5.52525 25.6841 5.5856 25.4919 5.6065 25.2936C5.62759 25.0954 5.6089 24.895 5.55149 24.7039C5.49408 24.5128 5.39909 24.3348 5.27192 24.1799C5.14475 24.025 4.98791 23.8963 4.81034 23.8013C4.63277 23.7062 4.43796 23.6466 4.23703 23.6257C4.03618 23.6048 3.83311 23.6231 3.63944 23.6796C3.44577 23.7361 3.26531 23.8298 3.1084 23.9553C2.95149 24.0807 2.8212 24.2355 2.72501 24.4107C2.62882 24.5859 2.5686 24.7781 2.54782 24.9763ZM0.730319 21.123C0.718382 21.3424 0.750444 21.562 0.824668 21.7691C0.898893 21.9763 1.01382 22.167 1.16287 22.3302C1.31192 22.4935 1.49216 22.6262 1.69326 22.7206C1.89436 22.815 2.11237 22.8694 2.33481 22.8806C2.55753 22.8931 2.78055 22.862 2.99104 22.7891C3.20153 22.7162 3.39532 22.6029 3.56127 22.4559C3.72721 22.3088 3.86203 22.1308 3.95796 21.9321C4.05389 21.7334 4.10904 21.518 4.12024 21.2982C4.14332 20.8551 3.98729 20.4211 3.6864 20.0914C3.3855 19.7617 2.96432 19.5633 2.51527 19.5396C2.06596 19.517 1.62586 19.6709 1.29132 19.9676C0.956779 20.2644 0.755057 20.6798 0.730319 21.123ZM22.4211 31.9567C22.2173 32.0108 22.0435 32.1425 21.9379 32.3228C21.8323 32.5031 21.8034 32.7174 21.8577 32.9186C21.9126 33.1196 22.0462 33.2908 22.229 33.3946C22.4119 33.4985 22.629 33.5265 22.8328 33.4725C22.9339 33.4462 23.0288 33.4004 23.112 33.3378C23.1952 33.2752 23.265 33.1971 23.3175 33.1078C23.37 33.0185 23.4041 32.9199 23.4178 32.8175C23.4315 32.7152 23.4247 32.6112 23.3976 32.5116C23.3426 32.3103 23.2089 32.1387 23.0258 32.0347C22.8427 31.9306 22.6252 31.9026 22.4211 31.9567ZM14.2962 31.9567C14.0942 31.9079 13.8808 31.9392 13.7019 32.0437C13.5229 32.1482 13.3926 32.3178 13.3387 32.5159C13.2849 32.7141 13.3119 32.9252 13.4139 33.104C13.5159 33.2828 13.6849 33.4151 13.8846 33.4725C13.9863 33.5018 14.0929 33.5107 14.1981 33.4987C14.3033 33.4868 14.4051 33.4542 14.4974 33.403C14.5897 33.3517 14.6707 33.2828 14.7357 33.2002C14.8006 33.1176 14.8482 33.0231 14.8756 32.9221C14.903 32.8212 14.9097 32.7159 14.8953 32.6123C14.8809 32.5088 14.8457 32.4091 14.7917 32.3192C14.7378 32.2293 14.6661 32.1509 14.581 32.0886C14.4959 32.0264 14.3991 31.9815 14.2962 31.9567ZM23.3981 1.48797C23.425 1.38825 23.4318 1.28427 23.4179 1.18197C23.4041 1.07968 23.37 0.981074 23.3174 0.891814C23.2649 0.802553 23.1951 0.724386 23.1119 0.661786C23.0288 0.599186 22.9339 0.553384 22.8328 0.527C22.6324 0.48309 22.4226 0.517202 22.2472 0.622217C22.0717 0.727232 21.9442 0.895035 21.8911 1.09061C21.8381 1.28618 21.8636 1.4944 21.9625 1.67183C22.0613 1.84926 22.2258 1.98217 22.4216 2.04283C22.5226 2.06976 22.6281 2.07677 22.7319 2.06344C22.8357 2.05012 22.9358 2.01674 23.0265 1.9652C23.1172 1.91366 23.1967 1.84498 23.2604 1.76309C23.3242 1.6812 23.371 1.58771 23.3981 1.48797ZM14.861 1.08044C14.8339 0.980765 14.7871 0.887349 14.7233 0.805551C14.6595 0.723752 14.58 0.655181 14.4892 0.603766C14.3985 0.552351 14.2984 0.519104 14.1947 0.505931C14.0909 0.492758 13.9855 0.499918 13.8846 0.527C13.7837 0.553429 13.689 0.599228 13.6061 0.661777C13.5231 0.724326 13.4535 0.802397 13.4012 0.891522C13.3488 0.980647 13.3148 1.07908 13.3011 1.18118C13.2874 1.28328 13.2942 1.38705 13.3212 1.48656C13.3482 1.5863 13.3949 1.67982 13.4585 1.76177C13.5222 1.84372 13.6016 1.9125 13.6922 1.96418C13.7828 2.01586 13.8829 2.04942 13.9866 2.06296C14.0904 2.07649 14.1958 2.06974 14.2969 2.04307C14.398 2.0164 14.4928 1.97035 14.5759 1.90754C14.659 1.84474 14.7287 1.7664 14.7811 1.67701C14.8335 1.58763 14.8675 1.48894 14.8812 1.38658C14.8949 1.28422 14.8881 1.18019 14.861 1.08044Z" fill="white"/>
<path d="M30.7532 13.2756C30.402 13.4245 30.0052 13.4298 29.65 13.2902C29.2949 13.1507 29.0104 12.8777 28.8591 12.5313C28.7841 12.3598 28.744 12.1754 28.7413 11.9886C28.7386 11.8019 28.7733 11.6164 28.8434 11.4428C28.9135 11.2693 29.0176 11.1111 29.1497 10.9773C29.2819 10.8436 29.4395 10.7368 29.6135 10.6632C29.9629 10.5235 30.354 10.5243 30.7028 10.6656C31.0516 10.8069 31.3304 11.0773 31.4795 11.419C31.6286 11.7607 31.636 12.1464 31.5003 12.4935C31.3645 12.8405 31.0963 13.1213 30.7532 13.2756ZM20.6347 4.22731C20.6146 4.12616 20.5744 4.02992 20.5165 3.94415C20.4586 3.85837 20.384 3.78475 20.2971 3.72751C20.2103 3.67028 20.1127 3.63057 20.0102 3.61066C19.9077 3.59075 19.8022 3.59105 19.6998 3.61153C19.5972 3.63122 19.4996 3.67076 19.4126 3.72787C19.3255 3.78498 19.2508 3.85853 19.1928 3.94427C19.1347 4.03001 19.0944 4.12625 19.0742 4.22743C19.054 4.32861 19.0544 4.43273 19.0752 4.53378C19.1224 4.73182 19.2458 4.90401 19.4193 5.01405C19.5927 5.1241 19.8027 5.16339 20.005 5.12364C20.2072 5.08389 20.3859 4.96821 20.5034 4.801C20.6209 4.63378 20.6679 4.42809 20.6347 4.22731ZM24.0481 4.95972C24.017 4.83871 23.962 4.72494 23.8863 4.62494C23.8106 4.52495 23.7156 4.4407 23.6067 4.37703C23.4979 4.31336 23.3774 4.27153 23.2521 4.25394C23.1268 4.23635 22.9993 4.24335 22.8768 4.27453C22.754 4.30499 22.6385 4.35911 22.537 4.43377C22.4355 4.50843 22.35 4.60216 22.2853 4.70955C22.2207 4.81695 22.1782 4.9359 22.1604 5.05955C22.1425 5.1832 22.1496 5.30912 22.1813 5.43006C22.2126 5.55098 22.2677 5.66464 22.3435 5.76454C22.4194 5.86445 22.5144 5.94864 22.6232 6.01231C22.732 6.07598 22.8525 6.11788 22.9777 6.13562C23.1029 6.15337 23.2305 6.14661 23.353 6.11572C23.4756 6.08484 23.5908 6.03044 23.6921 5.95564C23.7933 5.88083 23.8787 5.78708 23.9432 5.67973C24.0078 5.57239 24.0502 5.45355 24.0682 5.33001C24.0862 5.20647 24.0794 5.08065 24.0481 4.95972ZM27.1953 6.45809C27.1487 6.30943 27.0727 6.17133 26.9718 6.05172C26.8709 5.93211 26.747 5.83335 26.6073 5.76112C26.4676 5.68889 26.3148 5.64461 26.1577 5.63083C26.0006 5.61705 25.8422 5.63403 25.6918 5.68081C25.5411 5.72688 25.401 5.80184 25.2797 5.90141C25.1584 6.00097 25.0583 6.12318 24.9849 6.26102C24.9116 6.39886 24.8666 6.54962 24.8524 6.70467C24.8383 6.85971 24.8553 7.01599 24.9025 7.16453C25.0038 7.45673 25.2167 7.69837 25.496 7.83801C25.7752 7.97766 26.0986 8.00428 26.3974 7.91222C26.6962 7.82015 26.9468 7.61666 27.0958 7.34508C27.2448 7.07349 27.2805 6.75524 27.1953 6.45809ZM29.7054 8.66525C29.6452 8.50428 29.5534 8.35661 29.4353 8.23069C29.3172 8.10477 29.175 8.00308 29.017 7.93145C28.859 7.85982 28.6882 7.81965 28.5144 7.81324C28.3406 7.80683 28.1672 7.83431 28.0042 7.89411C27.8408 7.95319 27.6909 8.04355 27.563 8.15999C27.4351 8.27643 27.3318 8.41667 27.259 8.57263C27.1862 8.72859 27.1454 8.89721 27.1389 9.06878C27.1324 9.24036 27.1604 9.41151 27.2211 9.57239C27.3431 9.89739 27.5909 10.1613 27.91 10.306C28.2292 10.4508 28.5936 10.4645 28.923 10.3442C29.2525 10.2239 29.52 9.97947 29.6667 9.6646C29.8134 9.34973 29.8273 8.99025 29.7054 8.66525ZM13.7926 5.10989C13.7625 5.04094 13.7189 4.97854 13.6643 4.92625C13.6097 4.87396 13.5452 4.83281 13.4744 4.80518C13.4037 4.77754 13.3281 4.76395 13.252 4.76519C13.1759 4.76642 13.1008 4.78247 13.0311 4.81239C12.8903 4.87232 12.7794 4.98497 12.7228 5.12555C12.6662 5.26614 12.6685 5.42315 12.7293 5.56204C12.79 5.70094 12.9042 5.81033 13.0467 5.86617C13.1892 5.92201 13.3484 5.91971 13.4891 5.85978C13.7826 5.73511 13.9195 5.39889 13.7926 5.10989ZM28.2302 23.9483C28.0632 24.0707 27.9515 24.2528 27.919 24.4555C27.8864 24.6582 27.9356 24.8654 28.056 25.0328C28.1763 25.2002 28.3583 25.3144 28.563 25.3511C28.7677 25.3877 28.9788 25.3439 29.1511 25.2289C29.2364 25.1693 29.3089 25.0936 29.3644 25.0063C29.42 24.9189 29.4575 24.8216 29.4749 24.7199C29.4923 24.6182 29.4892 24.5142 29.4657 24.4137C29.4423 24.3132 29.399 24.2183 29.3383 24.1343C29.2779 24.0503 29.2014 23.9788 29.113 23.924C29.0246 23.8692 28.9262 23.8321 28.8233 23.8148C28.7204 23.7975 28.615 23.8004 28.5133 23.8233C28.4115 23.8462 28.3153 23.8887 28.2302 23.9483ZM29.8117 20.8873C29.7021 20.9528 29.6069 21.0391 29.5316 21.1413C29.4563 21.2435 29.4024 21.3594 29.373 21.4824C29.3436 21.6054 29.3394 21.7329 29.3606 21.8575C29.3817 21.9821 29.4279 22.1013 29.4963 22.2081C29.5647 22.3149 29.654 22.4072 29.759 22.4796C29.8639 22.5519 29.9825 22.6029 30.1077 22.6296C30.2328 22.6562 30.3622 22.658 30.488 22.6347C30.6139 22.6115 30.7339 22.5638 30.8408 22.4943C31.0516 22.3573 31.1995 22.1443 31.2528 21.9009C31.306 21.6574 31.2603 21.4032 31.1255 21.1926C30.9907 20.9821 30.7775 20.8322 30.5318 20.7751C30.2861 20.718 30.0276 20.7583 29.8117 20.8873ZM30.5598 17.4429C30.2821 17.5972 30.0778 17.8538 29.9918 18.1565C29.9057 18.4592 29.9449 18.7832 30.1008 19.0574C30.178 19.193 30.2816 19.3122 30.4056 19.4083C30.5296 19.5043 30.6716 19.5752 30.8235 19.617C30.9753 19.6588 31.134 19.6707 31.2905 19.6519C31.447 19.6331 31.5982 19.584 31.7354 19.5075C31.8732 19.4317 31.9944 19.3299 32.0922 19.2078C32.1899 19.0856 32.2622 18.9457 32.3049 18.7959C32.3476 18.6461 32.3599 18.4895 32.341 18.335C32.3221 18.1805 32.2725 18.0313 32.195 17.8958C32.1179 17.76 32.0144 17.6405 31.8904 17.5443C31.7665 17.448 31.6245 17.3768 31.4726 17.3347C31.3207 17.2927 31.1619 17.2806 31.0053 17.2991C30.8487 17.3177 30.6973 17.3666 30.5598 17.4429ZM30.5144 13.9891C30.2003 14.143 29.9609 14.4136 29.8487 14.7414C29.7366 15.0692 29.7608 15.4275 29.916 15.7377C29.9929 15.8919 30.0999 16.0295 30.2309 16.1427C30.3618 16.2559 30.5142 16.3424 30.6792 16.3973C30.8442 16.4522 31.0186 16.4744 31.1923 16.4626C31.366 16.4508 31.5356 16.4052 31.6914 16.3285C31.8474 16.2527 31.9867 16.1473 32.1013 16.0183C32.2159 15.8893 32.3035 15.7392 32.3591 15.5766C32.4147 15.4141 32.4372 15.2423 32.4253 15.0712C32.4134 14.9 32.3673 14.7329 32.2897 14.5794C32.1334 14.269 31.8587 14.0326 31.5258 13.9219C31.193 13.8113 30.8292 13.8354 30.5144 13.9891ZM23.2295 28.1411C23.1598 28.1708 23.0967 28.2137 23.0437 28.2675C22.9908 28.3212 22.9491 28.3847 22.9211 28.4543C22.893 28.524 22.8792 28.5984 22.8803 28.6733C22.8814 28.7482 22.8974 28.8222 22.9275 28.891C22.9882 29.03 23.1024 29.1394 23.245 29.1953C23.3156 29.223 23.391 29.2366 23.4669 29.2356C23.5429 29.2345 23.6179 29.2186 23.6876 29.189C23.981 29.0643 24.1179 28.7286 23.9916 28.4381C23.9304 28.2991 23.8158 28.1897 23.6729 28.134C23.53 28.0783 23.3705 28.0809 23.2295 28.1411ZM7.1066 23.3363C7.45726 23.1863 7.73324 22.9052 7.87388 22.5547C8.01453 22.2041 8.00834 21.8128 7.85667 21.4667C7.78206 21.2954 7.67391 21.1403 7.53845 21.0103C7.40298 20.8803 7.24284 20.7779 7.06721 20.7091C6.89158 20.6402 6.70391 20.6062 6.51493 20.609C6.32596 20.6118 6.1394 20.6513 5.96594 20.7253C5.7919 20.7989 5.6343 20.9057 5.50216 21.0395C5.37002 21.1733 5.26595 21.3315 5.19591 21.505C5.12588 21.6786 5.09125 21.864 5.09402 22.0508C5.09678 22.2376 5.13689 22.422 5.21204 22.5934C5.36367 22.9396 5.64834 23.2122 6.00355 23.3515C6.35877 23.4908 6.75549 23.4853 7.1066 23.3363ZM8.48803 10.0517C8.57319 9.99227 8.64565 9.91687 8.70127 9.82982C8.75689 9.74276 8.79457 9.64574 8.81218 9.54431C8.82978 9.44288 8.82695 9.33902 8.80386 9.23867C8.78077 9.13832 8.73786 9.04344 8.67759 8.95945C8.61763 8.87503 8.54133 8.80316 8.45307 8.74799C8.36481 8.69282 8.26635 8.65544 8.16337 8.63801C8.06039 8.62058 7.95493 8.62345 7.85308 8.64644C7.75123 8.66943 7.655 8.7121 7.56995 8.77197C7.4843 8.83129 7.41141 8.90675 7.35547 8.994C7.29953 9.08125 7.26166 9.17856 7.24404 9.28032C7.22642 9.38209 7.22939 9.48628 7.2528 9.58691C7.2762 9.68753 7.31957 9.78258 7.3804 9.86659C7.5026 10.0358 7.68781 10.1503 7.89544 10.185C8.10307 10.2197 8.31617 10.1718 8.48803 10.0517ZM6.90796 13.1122C7.0151 13.0453 7.10783 12.9583 7.18086 12.8561C7.25389 12.7539 7.30578 12.6385 7.33357 12.5165C7.36135 12.3945 7.36449 12.2683 7.34279 12.1451C7.32109 12.0218 7.27499 11.9041 7.20712 11.7984C7.07033 11.5856 6.85344 11.4351 6.60416 11.38C6.35487 11.3249 6.09362 11.3698 5.87787 11.5047C5.66211 11.6397 5.50954 11.8536 5.4537 12.0996C5.39787 12.3455 5.44335 12.6032 5.58014 12.8161C5.71642 13.0291 5.93287 13.1799 6.18189 13.2354C6.4309 13.291 6.69208 13.2466 6.90796 13.1122ZM6.15741 16.557C6.29959 16.4834 6.42536 16.3824 6.52727 16.2599C6.62918 16.1375 6.70517 15.9961 6.75074 15.8442C6.7963 15.6923 6.81053 15.5329 6.79256 15.3755C6.7746 15.2181 6.72482 15.0658 6.64616 14.9277C6.56749 14.7895 6.46155 14.6684 6.3346 14.5714C6.20765 14.4744 6.06226 14.4034 5.90704 14.3628C5.75182 14.3222 5.58992 14.3127 5.43092 14.3349C5.27191 14.3571 5.11903 14.4105 4.98132 14.492C4.70487 14.6464 4.50173 14.9027 4.41643 15.2046C4.33113 15.5065 4.37061 15.8295 4.52623 16.1027C4.68185 16.376 4.94092 16.5772 5.24667 16.6624C5.55242 16.7475 5.87992 16.7096 6.15741 16.557ZM6.20384 20.0118C6.51854 19.8579 6.75838 19.5869 6.87058 19.2586C6.98279 18.9302 6.95818 18.5713 6.80217 18.2608C6.72536 18.1066 6.61836 17.9689 6.48734 17.8556C6.35633 17.7423 6.20389 17.6558 6.03882 17.6009C5.87374 17.546 5.69929 17.5239 5.52552 17.5359C5.35174 17.5478 5.18208 17.5936 5.02632 17.6705C4.87046 17.7465 4.73131 17.8521 4.61683 17.9812C4.50235 18.1102 4.41478 18.2603 4.35912 18.4228C4.30346 18.5853 4.28081 18.757 4.29246 18.9281C4.30412 19.0992 4.34984 19.2664 4.42703 19.4201C4.58328 19.7309 4.85817 19.9677 5.19133 20.0787C5.52448 20.1896 5.88865 20.1656 6.20384 20.0118ZM16.0835 29.7745C16.1039 29.8757 16.1444 29.972 16.2025 30.0578C16.2606 30.1436 16.3353 30.2172 16.4223 30.2745C16.5093 30.3318 16.6069 30.3717 16.7095 30.3918C16.8121 30.4119 16.9177 30.4119 17.0203 30.3917C17.2272 30.3502 17.409 30.2294 17.5259 30.0558C17.6427 29.8822 17.685 29.67 17.6435 29.4657C17.6015 29.262 17.4794 29.0829 17.3039 28.9677C17.1285 28.8525 16.914 28.8105 16.7072 28.8509C16.5005 28.892 16.3187 29.0123 16.2018 29.1855C16.0849 29.3586 16.0423 29.5705 16.0835 29.7745ZM12.6721 29.0402C12.703 29.1613 12.7579 29.2751 12.8335 29.3752C12.9092 29.4752 13.0042 29.5596 13.1129 29.6233C13.2217 29.6871 13.3422 29.729 13.4675 29.7467C13.5928 29.7644 13.7203 29.7575 13.8429 29.7264C14.0903 29.664 14.3025 29.5072 14.4327 29.2905C14.563 29.0738 14.6006 28.8149 14.5374 28.5708C14.4742 28.3267 14.3153 28.1174 14.0956 27.9889C13.876 27.8604 13.6136 27.8233 13.3661 27.8856C13.2437 27.9165 13.1286 27.9708 13.0275 28.0455C12.9264 28.1203 12.8412 28.2139 12.7767 28.3211C12.7123 28.4283 12.6698 28.547 12.6519 28.6704C12.6339 28.7938 12.6408 28.9195 12.6721 29.0402ZM9.52387 27.5414C9.57017 27.6902 9.64589 27.8284 9.74665 27.9481C9.84741 28.0679 9.97121 28.1667 10.1109 28.239C10.2506 28.3113 10.4034 28.3555 10.5606 28.3692C10.7177 28.3829 10.876 28.3657 11.0264 28.3187C11.1772 28.2729 11.3173 28.1981 11.4387 28.0987C11.56 27.9993 11.6603 27.8773 11.7338 27.7395C11.8072 27.6018 11.8523 27.4511 11.8666 27.2961C11.8808 27.1411 11.8638 26.9849 11.8167 26.8364C11.7213 26.5364 11.5092 26.286 11.2268 26.1402C10.9445 25.9943 10.615 25.965 10.3108 26.0586C10.1603 26.1047 10.0204 26.1797 9.89932 26.2793C9.77822 26.3788 9.67824 26.501 9.60513 26.6387C9.53201 26.7765 9.4872 26.9272 9.47325 27.0821C9.45931 27.237 9.47651 27.3931 9.52387 27.5414ZM7.01278 25.3328C7.07265 25.494 7.16425 25.6419 7.2823 25.7681C7.40035 25.8942 7.54253 25.9961 7.70064 26.0678C7.85876 26.1395 8.02969 26.1797 8.2036 26.186C8.3775 26.1922 8.55096 26.1645 8.71397 26.1044C9.03642 25.9794 9.29637 25.7347 9.43803 25.4228C9.57969 25.1109 9.59178 24.7566 9.47169 24.436C9.35161 24.1154 9.10893 23.854 8.79572 23.7079C8.48251 23.5618 8.12373 23.5426 7.79636 23.6545C7.46712 23.7749 7.19971 24.0192 7.05282 24.3338C6.90592 24.6485 6.89152 25.0077 7.01278 25.3328ZM25.9589 26.4846C25.8356 26.5873 25.7577 26.7333 25.7416 26.8918C25.7256 27.0502 25.7726 27.2085 25.8728 27.3333C25.973 27.4581 26.1185 27.5396 26.2785 27.5604C26.4385 27.5813 26.6004 27.5399 26.73 27.4451C26.7969 27.3961 26.8531 27.3344 26.8953 27.2637C26.9375 27.1929 26.9649 27.1145 26.9758 27.0331C26.9867 26.9516 26.9809 26.8689 26.9588 26.7897C26.9366 26.7106 26.8986 26.6366 26.8469 26.5722C26.7952 26.5078 26.7309 26.4544 26.6579 26.415C26.5849 26.3756 26.5045 26.3511 26.4217 26.3429C26.3389 26.3347 26.2552 26.343 26.1757 26.3674C26.0962 26.3917 26.0225 26.4316 25.9589 26.4846ZM20.134 28.9618C19.9711 28.9861 19.8246 29.073 19.7265 29.2035C19.6284 29.334 19.5866 29.4976 19.6103 29.6584C19.6221 29.738 19.6497 29.8145 19.6915 29.8836C19.7333 29.9527 19.7885 30.013 19.8539 30.0611C19.9194 30.1091 19.9938 30.1439 20.0729 30.1635C20.152 30.1832 20.2342 30.1872 20.3149 30.1754C20.3958 30.164 20.4736 30.1369 20.5438 30.0958C20.614 30.0546 20.6753 30.0002 20.7242 29.9356C20.7731 29.871 20.8085 29.7976 20.8286 29.7195C20.8486 29.6413 20.8528 29.5601 20.841 29.4803C20.8292 29.4005 20.8015 29.3237 20.7595 29.2544C20.7176 29.185 20.6622 29.1246 20.5965 29.0764C20.5308 29.0283 20.4562 28.9933 20.3768 28.9737C20.2975 28.954 20.2149 28.95 20.134 28.9618ZM17.1103 4.34206C17.0984 4.26227 17.0706 4.18558 17.0287 4.11639C16.9867 4.0472 16.9312 3.98688 16.8655 3.93888C16.7998 3.89088 16.7252 3.85615 16.6459 3.83668C16.5665 3.81722 16.4841 3.8134 16.4033 3.82545C16.2403 3.84912 16.0936 3.93567 15.9953 4.06608C15.8971 4.19648 15.8554 4.36005 15.8794 4.52079C15.9034 4.68154 15.9911 4.8263 16.1233 4.92323C16.2555 5.02016 16.4213 5.06131 16.5842 5.03764C16.7474 5.01416 16.8945 4.92771 16.9932 4.79728C17.0918 4.66684 17.1339 4.50311 17.1103 4.34206ZM10.8617 6.65453C10.7591 6.52718 10.6096 6.4451 10.4458 6.42625C10.282 6.4074 10.1173 6.45331 9.9877 6.55395C9.89117 6.62927 9.81945 6.73114 9.78161 6.84668C9.74377 6.96222 9.74151 7.08623 9.77511 7.20304C9.80872 7.31984 9.87668 7.42419 9.9704 7.50289C10.0641 7.58159 10.1794 7.63111 10.3016 7.64518C10.4239 7.65924 10.5476 7.63723 10.6572 7.58193C10.7667 7.52662 10.8572 7.4405 10.9172 7.33446C10.9771 7.22843 11.0039 7.10723 10.994 6.9862C10.9841 6.86517 10.9381 6.74975 10.8617 6.65453Z" fill="white"/>
</g>
<defs>
<clipPath id="clip0_2002_8055">
<rect width="120" height="34" fill="white"/>
</clipPath>
</defs>
</svg>
